<svg width="539" height="456" viewBox="0 0 539 456" xmlns="http://www.w3.org/2000/svg">
    <g fill-rule="nonzero" fill="none">
        <path d="M78.93 412.376c-105.24-58.139-105.24-152.356 0-210.548 105.239-58.192 275.886-58.139 381.136 0s105.24 152.356 0 210.548c-105.239 58.192-275.886 58.139-381.137 0z" fill="#46484B"/>
        <path d="M119.308 356.298c14.858-6.828 38.627-7.014 53.096-.432 14.47 6.582 14.596 17.453.211 24.272-14.384 6.819-38.127 7.014-53.096.432-14.968-6.582-15.061-17.454-.211-24.272zM400.23 300.706l85.682-49.44a1.117 1.117 0 0 0 0-2.116l-113.198-65.38a4.054 4.054 0 0 0-3.664 0l-85.698 49.475a1.117 1.117 0 0 0 0 2.115l113.198 65.346c1.156.59 2.525.59 3.68 0z" fill="#282828"/>
        <path d="m328.426 222.907-3.765-2.174a10.198 10.198 0 0 0-9.257 0l-199.1 114.93c-2.539 1.472-2.539 3.875 0 5.339l3.765 2.174a10.257 10.257 0 0 0 9.257 0l60.483-34.915 26.916 15.541c6.93 4.002 18.286 4.002 25.216 0l46.462-26.852c5.923-3.384 5.923-9.019 0-12.436l-28.77-16.6 68.785-39.686c2.555-1.446 2.555-3.857.008-5.321zM463.743 322.77c-10.535-5.321-14.02-7.572-13.902-10.389.076-2.03 2.174-3.384 5.754-3.646a6.914 6.914 0 0 0 2.885-.72c.195-.118.44-.304.44-.448 0-.143-.288-.896-1.582-1.64a9.605 9.605 0 0 0-4.612-1.185 5.247 5.247 0 0 0-2.538.533 1.582 1.582 0 0 0-.846.964 5.077 5.077 0 0 1-5.077 3.748c-3.901 0-9.308-3.384-17.177-8.587l-.846-.567a1.144 1.144 0 0 1 .059-1.946l37.814-21.86.914.6c6.44 4.23 11.516 7.614 14.732 7.614 1.971 0 2.344-1.142 2.394-1.37a4.687 4.687 0 0 1 2.293-2.978 7.616 7.616 0 0 1 3.842-.906c2.075.003 4.115.539 5.923 1.557 2.005 1.16 3.165 2.775 3.165 4.433a3.74 3.74 0 0 1-2.031 3.24 9.402 9.402 0 0 1-3.977 1.075 7.557 7.557 0 0 0-2.953.727c.93 1.303 5.297 3.943 13.005 7.834l1.033.525a1.144 1.144 0 0 1 .059 2.013l-1.007.584c-1.48.846-2.843 1.692-4.079 2.411-5.296 3.156-8.461 5.076-11.651 5.076h-.085a5.077 5.077 0 0 1-5.077-3.747 1.582 1.582 0 0 0-.846-.965 5.306 5.306 0 0 0-2.538-.533 9.571 9.571 0 0 0-4.603 1.185c-1.303.744-1.583 1.438-1.583 1.64 0 .204.237.33.44.45.9.444 1.883.692 2.886.727 3.57.27 5.669 1.599 5.762 3.63.085 2.537-3.114 4.424-10.365 8.46-1.405.778-2.843 1.59-4.333 2.444l-.846.482-.846-.465zM415.326 354.352c-12.455-6.286-16.212-9.044-16.077-11.844.085-2.225 2.395-3.697 6.346-4.027a5.924 5.924 0 0 0 2.488-.601.685.685 0 0 0 .262-.212c0-.067-.262-.66-1.387-1.31a8.564 8.564 0 0 0-4.121-1.075 4.392 4.392 0 0 0-2.082.423 1.1 1.1 0 0 0-.609.744c-.44 1.844-2.208 4.027-5.737 4.078h-.101c-3.706 0-7.861-2.783-13.623-6.641l-2.59-1.692-.423-.28a1.455 1.455 0 0 1 0-2.436l1.938-1.218c4.155-2.394 9.232-5.322 10.568-6.828a8.184 8.184 0 0 0-2.225-.456 10.197 10.197 0 0 1-4.375-1.185 4.078 4.078 0 0 1-2.216-3.528c0-1.76 1.218-3.485 3.384-4.712 1.95-1.1 4.15-1.682 6.389-1.692 1.51-.046 3.005.3 4.34 1.007a5.076 5.076 0 0 1 2.497 3.215c.05.228.338.998 1.692 1.023 2.7 0 6.77-2.377 13.022-5.973l2.852-1.582.846.423c10.23 5.186 14.486 7.851 14.384 10.889-.11 2.233-2.487 3.73-6.363 4.035a6.127 6.127 0 0 0-2.487.61.685.685 0 0 0-.254.21c0 .068.262.66 1.388 1.312a8.598 8.598 0 0 0 4.129 1.074 4.41 4.41 0 0 0 2.064-.414c.305-.142.531-.411.618-.736.49-2.022 2.454-4.053 5.745-4.095h.094c3.866 0 9.146 3.13 16.449 7.47l2.733 1.616a1.438 1.438 0 0 1 0 2.538l-.999.567-36.283 20.93-.567.373c-.434.28-.983.312-1.447.084l-.262-.084zM287.422 379.859c19.461 11.26 51.107 11.26 70.603 0 19.495-11.26 19.503-29.5 0-40.752-19.504-11.252-51.108-11.26-70.603 0-19.496 11.26-19.496 29.534 0 40.752z" fill="#282828"/>
        <path d="m157.334 34.306-3.512-2.09h-.059c-4.84-2.496-11.28-1.76-18.192 2.673-13.886 8.934-24.488 29.552-23.693 46.049.398 8.223 3.554 13.866 8.344 16.353l3.511 2.09h.05c4.807 2.445 11.23 1.692 18.15-2.724 13.886-8.943 24.489-29.56 23.693-46.049-.347-8.172-3.503-13.815-8.292-16.302z" fill="#37474F"/>
        <path d="m123.437 99.22-3.156-1.929h-.051c-4.78-2.487-7.937-8.13-8.335-16.345-.372-7.343 1.549-15.532 5.001-23.121l3.512 2.09c-3.461 7.614-5.373 15.76-5.01 23.113.39 8.045 3.419 13.62 8.039 16.192z" fill="#263238"/>
        <path d="M141.993 96.708c13.885-8.943 24.488-29.56 23.692-46.049-.795-16.489-12.692-22.622-26.586-13.68-13.894 8.942-24.496 29.56-23.692 46.049.804 16.488 12.7 22.622 26.586 13.68z" fill="#455A64"/>
        <path d="M130.35 95.6c-8.182.397-9.52-8.808-9.705-12.784-.711-14.543 9.037-33.494 21.289-41.378a18.533 18.533 0 0 1 8.791-3.266c8.183-.398 9.52 8.807 9.714 12.783.703 14.543-9.045 33.494-21.289 41.379a18.617 18.617 0 0 1-8.792 3.265h-.008z" fill="#FAFAFA"/>
        <path d="M142.154 69.567a.846.846 0 0 1-.288 0 .888.888 0 0 1-.6-.846v-21.09a.888.888 0 0 1 1.776 0v18.45l9.816-12.605a.897.897 0 0 1 1.413 1.1L142.848 69.23a.846.846 0 0 1-.694.338z" fill="#37474F"/>
        <path d="M137.12 85.109a.322.322 0 0 1-.128 0 .38.38 0 0 1-.254-.466l4.942-16.65a.375.375 0 0 1 .72.212l-4.942 16.65a.364.364 0 0 1-.339.254z" fill="#FF9600"/>
        <path d="M141.917 65.566c1.125-.728 2.09-.237 2.158 1.108a4.653 4.653 0 0 1-1.921 3.731c-1.126.728-2.099.228-2.158-1.108a4.619 4.619 0 0 1 1.92-3.731z" fill="#FF9600"/>
        <path d="M179.698 70.989c-.197 0-.39-.052-.559-.152a1.108 1.108 0 0 1-.567-.973V24.179a2.69 2.69 0 0 1 .39-1.337c.226-.407.552-.75.947-.998l13.683-7.893a1.43 1.43 0 0 1 1.455-.043c.343.195.595.517.702.897l1.109 3.68a.508.508 0 0 0 .804.322L229.815.254A1.27 1.27 0 0 1 231 .084l.144.077c.352.252.55.667.524 1.1v38.366a2.927 2.927 0 0 1-1.345 2.327l-50.092 28.883a1.143 1.143 0 0 1-.533.152zm14.672-56.361a.66.66 0 0 0-.313.093l-13.674 7.893a1.87 1.87 0 0 0-.618.66 1.776 1.776 0 0 0-.262.846v45.744a.17.17 0 0 0 .102.169c.059.038.135.038.194 0l50.042-28.883c.498-.353.81-.913.846-1.523V1.261a.406.406 0 0 0-.085-.305h-.059a.643.643 0 0 0-.28.102L198.11 19.61a1.43 1.43 0 0 1-2.158-.846l-1.1-3.69a.61.61 0 0 0-.254-.346.465.465 0 0 0-.228-.101z" fill="#E0E0E0"/>
        <path d="M238.074 5.372a.787.787 0 0 0-.305-.702l-2.073-1.201a.846.846 0 0 0-.787.076l-31.832 18.333-.846-2.86a1.04 1.04 0 0 0-.466-.617l-2.073-1.21a1.007 1.007 0 0 0-1.024 0l-13.673 7.893a2.47 2.47 0 0 0-1.151 1.988v45.6c-.016.27.097.53.304.703l2.074 1.192a.846.846 0 0 0 .761-.093l49.923-28.815a2.47 2.47 0 0 0 1.109-1.929l.059-38.358z" fill="#BA68C8"/>
        <path d="M238.074 5.372a.787.787 0 0 0-.305-.702l-2.073-1.201a.846.846 0 0 0-.787.076l-31.832 18.333-.846-2.86a1.04 1.04 0 0 0-.466-.617l-2.073-1.21a1.007 1.007 0 0 0-1.024 0l-13.673 7.893a2.47 2.47 0 0 0-1.151 1.988v45.6c-.016.27.097.53.304.703l2.074 1.192a.846.846 0 0 0 .761-.093l49.923-28.815a2.47 2.47 0 0 0 1.109-1.929l.059-38.358z" fill="#FF9600" opacity=".5"/>
        <g opacity=".4" fill="#FFF">
            <path d="M201.706 18.384a.973.973 0 0 0-.99.05l-13.674 7.885a2.352 2.352 0 0 0-.787.846l-2.09-1.21c.185-.345.456-.636.787-.845l13.674-7.894a.999.999 0 0 1 1.016 0l2.064 1.168zM237.693 4.62a.846.846 0 0 0-.736.11l-32.188 18.56a.965.965 0 0 1-1.48-.592l-.254-.846 31.823-18.358a1 1 0 0 1 .491-.144c.1-.002.2.022.288.068l2.056 1.201z"/>
        </g>
        <path d="M186.086 74.449c.032.042.065.081.102.118l-2.014-1.167a.6.6 0 0 1-.186-.22.288.288 0 0 1-.051-.127 1.117 1.117 0 0 1-.06-.355V27.013c.01-.094.026-.188.051-.279v-.144c.046-.14.103-.275.17-.406a.677.677 0 0 1 .067-.135l2.09 1.21a2.2 2.2 0 0 0-.321 1.09v45.49a1.43 1.43 0 0 0 0 .195v.11a.16.16 0 0 0 0 .06v.067a.431.431 0 0 0 .152.178z" fill="#BA68C8" opacity=".3"/>
        <g>
            <path d="M477.578 249.616c.477-.207.802-.659.846-1.176v-1.81l-100.439-56.861a4.536 4.536 0 0 0-4.095 0l-78.972 45.591 103.722 59.83 78.938-45.574z" fill="#999"/>
            <path d="M477.578 249.616c.477-.207.802-.659.846-1.176v-1.81l-100.439-56.861a4.536 4.536 0 0 0-4.095 0l-78.972 45.591 103.722 59.83 78.938-45.574z" fill="#FFF" opacity=".2"/>
            <path d="M477.578 247.881c1.134-.651 1.134-1.692 0-2.36l-99.593-57.529a4.536 4.536 0 0 0-4.095 0l-78.972 45.592 103.714 59.83 78.946-45.533z" fill="#E74242"/>
            <path d="M477.578 247.881c1.134-.651 1.134-1.692 0-2.36l-99.593-57.529a4.536 4.536 0 0 0-4.095 0l-78.972 45.592 103.714 59.83 78.946-45.533z" fill="#000" opacity=".5"/>
            <path d="m313.077 221.655 58.47-33.739a4.536 4.536 0 0 1 4.095 0l92.84 53.586 7.615-4.424v9.027l-.135.084c.245.55.042 1.168-.711 1.6l-66.965 38.637-103.67-59.83v-9.84l8.46 4.899z" fill="#EBEBEB"/>
            <path d="M475.25 237.95c1.135-.652 1.135-1.693 0-2.361l-99.592-57.529a4.536 4.536 0 0 0-4.095 0l-66.948 38.697 103.713 59.83 66.923-38.638z" fill="#FAFAFA"/>
            <path fill="#E6E6E6" d="M408.286 276.586v9.84l-103.713-59.83v-9.84z"/>
            <path d="M407.203 272.746a2.7 2.7 0 0 0 .762.262c.393.106.808.106 1.201 0 .134-.022.263-.068.38-.136.61-.338.542-.947-.168-1.345a2.606 2.606 0 0 0-1.058-.313 2.285 2.285 0 0 0-1.278.212.262.262 0 0 0-.118.093c-.474.33-.38.897.28 1.227z" fill="#263238"/>
            <path d="M396.888 280.444a5.295 5.295 0 0 0 1.041 3.384 3.639 3.639 0 0 0 2.928 1.396 5.661 5.661 0 0 0 2.835-.846c.18-.092.355-.193.524-.304l-1.16-.66c-2.783 1.556-5.008.237-5.008-2.978a11.2 11.2 0 0 1 5.077-8.756c1.506-.846 2.877-.897 3.799-.195.513.368.88.904 1.04 1.514.394.107.809.107 1.202 0a4.365 4.365 0 0 0-.846-1.793 3.681 3.681 0 0 0-2.936-1.37 5.746 5.746 0 0 0-2.852.845 12.284 12.284 0 0 0-5.644 9.763z" fill="#263238"/>
            <path d="m399.816 271.147 78.608-38.41v1.287a2.242 2.242 0 0 1-1.024 1.768l-77.584 37.14v-1.785z" fill="#999"/>
            <path d="m399.816 271.147 78.608-38.41v1.287a2.242 2.242 0 0 1-1.024 1.768l-77.584 37.14v-1.785z" fill="#FFF" opacity=".2"/>
            <path d="M477.578 233.914c1.134-.652 1.134-1.692 0-2.36l-99.593-57.487a4.536 4.536 0 0 0-4.095 0l-78.972 37.91 103.714 59.83 78.946-37.893z" fill="#95062D"/>
            <path d="M477.578 233.914c1.134-.652 1.134-1.692 0-2.36l-99.593-57.487a4.536 4.536 0 0 0-4.095 0l-78.972 37.91 103.714 59.83 78.946-37.893z" fill="#E74242" opacity=".2"/>
            <path fill="#E74242" d="m398.64 295.19-103.722-59.83v-23.417l103.714 59.872z"/>
            <path d="M380.65 280.174a3.681 3.681 0 0 0 2.945-1.396 5.33 5.33 0 0 0 1.041-3.384 12.377 12.377 0 0 0-5.652-9.789 5.797 5.797 0 0 0-2.86-.846c-2.378 0-3.977 1.93-3.977 4.797a12.326 12.326 0 0 0 5.652 9.788c.861.526 1.844.817 2.852.846v-.016z" fill="#455A64"/>
            <path d="M383.452 275.377c0 3.231-2.26 4.534-5.077 2.927a11.184 11.184 0 0 1-5.077-8.765c0-3.232 2.267-4.543 5.077-2.927a11.2 11.2 0 0 1 5.077 8.765zM365.065 263.592v1.768c0 3.553-2.488 4.983-5.56 3.215l-52.072-30.06a12.275 12.275 0 0 1-5.56-9.627v-1.768c0-3.545 2.489-4.983 5.56-3.215l52.072 30.06a12.292 12.292 0 0 1 5.56 9.627z" fill="#F5F5F5"/>
            <path fill="#FFF" d="M399.858 294.488v-23.265l-1.226.592.008 23.375z"/>
            <path fill="#FFF" opacity=".2" d="M399.858 294.488v-23.265l-1.226.592.008 23.375z"/>
            <path d="M295.765 206.917c.057.583.387 1.103.888 1.405l101.936 58.806c.563.28 1.223.28 1.786 0l80.097-40.507v-1.785l-103.688-59.864-80.13 40.516a1.853 1.853 0 0 0-.89 1.43z" fill="#E74141"/>
            <path d="m480.472 224.836-80.089 40.515a1.794 1.794 0 0 1-.897.203 1.769 1.769 0 0 1-.905-.203l-101.92-58.823a.541.541 0 0 1 0-1.023l80.131-40.533 103.68 59.864z" fill="#000" opacity=".5"/>
            <path d="M480.472 224.836v1.785l-80.089 40.507a1.794 1.794 0 0 1-.897.203v-1.777c.312.012.62-.058.897-.203l80.089-40.515z" fill="#FFF" opacity=".2"/>
            <path fill="#95062D" d="m479.253 225.547-103.721-59.83v-23.418l103.713 60.11z"/>
            <path fill="#000" opacity=".7" d="m479.253 225.547-103.721-59.83v-23.418l103.713 60.11z"/>
            <path d="M296.865 194.32a2.47 2.47 0 0 0-1.109 1.93v4.737c.043.78.454 1.493 1.109 1.92l101.538 58.553c.7.355 1.526.355 2.225 0l67.896-36.717v-7.318l-103.722-59.839-67.937 36.734z" fill="#EBEBEB"/>
            <path d="m364.802 157.586-67.937 36.734a.677.677 0 0 0 0 1.286l101.538 58.544c.7.356 1.526.356 2.225 0l67.854-36.725-103.68-59.839z" fill="#FAFAFA"/>
            <path d="M459.834 218.026c.237.123.49.212.753.262.396.106.814.106 1.21 0 .132-.023.259-.072.372-.144.618-.33.542-.948-.16-1.345a2.784 2.784 0 0 0-1.067-.305 2.217 2.217 0 0 0-1.277.212c-.043 0-.093.042-.119.093-.465.33-.372.846.288 1.227z" fill="#263238"/>
            <path d="M399.486 254.396v7.318a2.31 2.31 0 0 1-1.134-.254l-101.487-58.536a2.487 2.487 0 0 1-1.109-1.929v-4.72a2.487 2.487 0 0 1 .846-1.692c-.33.33-.254.77.263 1.074l101.487 58.544c.352.17.745.238 1.134.195z" fill="#E6E6E6"/>
            <path d="M471.722 207.89a4.443 4.443 0 0 0-4.603.271c-2.775 1.607-5.17 5.296-6.287 9.306l1.515.229c1.032-3.562 3.148-6.853 5.525-8.232a4.011 4.011 0 0 1 1.921-.592c.408-.002.808.107 1.16.313 1.21.727 1.886 2.673 1.819 5.194-.144 4.848-2.928 10.33-6.203 12.225a3.597 3.597 0 0 1-2.284.558l-1.693.948.102.068c.583.347 1.25.528 1.93.524a5.349 5.349 0 0 0 2.673-.795c3.731-2.157 6.77-8.08 6.947-13.485.127-3.122-.804-5.508-2.522-6.532z" fill="#263238"/>
            <path d="M295.765 192.045c.055.585.385 1.109.888 1.412l101.936 58.798c.56.288 1.225.288 1.786 0l80.097-48.942v-1.776L376.784 141.69l-80.13 48.95c-.502.302-.832.822-.89 1.405z" fill="#95062D"/>
            <path d="m480.472 201.537-80.089 48.95a1.794 1.794 0 0 1-.897.203 1.769 1.769 0 0 1-.905-.203l-101.92-58.823a.55.55 0 0 1 0-1.032l80.131-48.942 103.68 59.847z" fill="#E74242"/>
            <path d="m480.472 201.537-80.089 48.95a1.794 1.794 0 0 1-.897.203 1.769 1.769 0 0 1-.905-.203l-101.92-58.823a.55.55 0 0 1 0-1.032l80.131-48.942 103.68 59.847z" fill="#E74242" opacity=".35"/>
            <path fill="#95062D" d="M480.472 224.836v-23.257l-1.227.83.008 23.138z"/>
            <path fill="#999" opacity=".2" d="M480.472 224.836v-23.257l-1.227.83.008 23.138z"/>
        </g>
        <g>
            <path d="m243.464 316.408 35.488-20.516c3.663-2.106 5.491-4.873 5.491-7.614v-4.94l-33.398-18.951a7.817 7.817 0 0 1-3.528-6.117v-31.64l-61.99 35.811v31.64a7.8 7.8 0 0 0 3.538 6.118l27.923 16.235c7.302 4.204 19.165 4.204 26.476-.026z" fill="#95062D"/>
            <path d="M200.428 301.772v4.915l-11.355-6.548a7.825 7.825 0 0 1-3.528-6.116v-31.641l11.846-6.81c.245 2.994.507 6.1.753 9.111l-8.276 4.797v22.072a7.732 7.732 0 0 0 3.529 6.117l7.031 4.103z" fill="#000" opacity=".15"/>
            <path d="M189.826 291.56a7.792 7.792 0 0 0 3.529 6.117l23.616 13.765c7.31 4.23 19.174 4.23 26.493 0l35.538-20.516c7.32-4.23 7.32-11.066 0-15.296l-23.624-13.773a7.8 7.8 0 0 1-3.537-6.116v-22.073L189.86 269.48l-.034 22.08z" fill="#E74242"/>
            <path d="m262.536 266.028-7.192-4.154a7.8 7.8 0 0 1-3.537-6.116v-22.09l-61.98 35.812v22.08a7.792 7.792 0 0 0 3.528 6.117l7.073 4.087 62.108-35.736z" fill="#000" opacity=".15"/>
            <path d="M115.982 324.395a9.495 9.495 0 0 0 8.563-.153L328.468 206.52a9.746 9.746 0 0 0 4.409-7.614V19.348a9.475 9.475 0 0 0-4.13-7.504 9.47 9.47 0 0 0-8.562.16L116.262 129.737a9.771 9.771 0 0 0-4.417 7.614v179.523a9.466 9.466 0 0 0 4.137 7.522z" fill="#37474F"/>
            <path d="M124.545 324.234 328.468 206.52a9.788 9.788 0 0 0 4.417-7.614V19.348c0-2.817-1.98-3.96-4.417-2.538L124.545 134.516a9.754 9.754 0 0 0-4.391 7.614v179.523c0 2.843 1.954 3.985 4.391 2.58z" fill="#455A64"/>
            <path d="M125.967 304.37V144.125a5.998 5.998 0 0 1 2.716-4.695L324.331 26.49c1.497-.846 2.716-.17 2.716 1.565v160.243A5.998 5.998 0 0 1 324.33 193L128.675 305.935c-1.498.87-2.708.169-2.708-1.566z" fill="#263238"/>
            <path d="M319 189.117a6.023 6.023 0 0 0 2.716-4.703V28.02L128.683 139.43a5.998 5.998 0 0 0-2.716 4.695V300.52L319 189.117z" fill="#4F3161"/>
            <path d="m113.148 133.018 8.275 4.772a9.44 9.44 0 0 0-1.27 4.34v179.557c0 2.538 1.735 4.002 4.418 2.538a9.42 9.42 0 0 1-8.563.153 8.46 8.46 0 0 1-4.138-6.955v-180.04a9.153 9.153 0 0 1 1.278-4.365z" fill="#263238"/>
        </g>
        <g>
            <path d="M352.888 28.764a2.869 2.869 0 0 0-1.421.432L144.768 148.55a7.072 7.072 0 0 0-3.198 5.541v166.352c0 1.607.897 2.978 2.15 2.978.37-.01.733-.118 1.048-.313l206.69-119.406a7.047 7.047 0 0 0 3.199-5.533V31.04c0-1.43-.72-2.276-1.769-2.276zm.694 169.406a5.922 5.922 0 0 1-2.657 4.593l-206.69 119.415a1.058 1.058 0 0 1-.516.16c-.567 0-1.066-.888-1.066-1.894V154.092a5.964 5.964 0 0 1 2.657-4.602L352 30.126c.267-.169.573-.268.888-.287.601 0 .694.753.694 1.201v167.13z" fill="#E0E0E0"/>
            <path d="M353.582 31.04v167.13a5.922 5.922 0 0 1-2.657 4.593l-206.69 119.415a1.058 1.058 0 0 1-.516.16c-.567 0-1.066-.888-1.066-1.894V154.092a5.964 5.964 0 0 1 2.657-4.602L352 30.126c.267-.169.573-.268.888-.287.601 0 .694.753.694 1.201z" fill="#DDD"/>
            <path d="m138.837 320.9 3.918 2.217a3.232 3.232 0 0 1-1.177-2.682V164.541l-4.095-2.395V318.1a3.096 3.096 0 0 0 1.354 2.8z" fill="#EBEBEB"/>
            <path d="m138.837 320.9 3.918 2.217a3.232 3.232 0 0 1-1.177-2.682V164.541l-4.095-2.395V318.1a3.096 3.096 0 0 0 1.354 2.8z" fill="#000" opacity=".1"/>
            <path d="M354.657 31.015c0-2.014-1.43-2.834-3.19-1.82L144.768 148.552a7.09 7.09 0 0 0-3.19 5.541v10.449L354.657 41.505v-10.49z" fill="#E74242"/>
            <path d="M334.527 43.925c.948-.55 1.692-.11 1.692.99a3.798 3.798 0 0 1-1.692 2.978c-.948.55-1.692.101-1.692-.99a3.798 3.798 0 0 1 1.692-2.978zM341.398 39.957c.956-.55 1.692-.11 1.692.99a3.782 3.782 0 0 1-1.692 2.978c-.948.55-1.693.101-1.693-.99a3.798 3.798 0 0 1 1.693-2.978zM348.277 35.99c.948-.55 1.692-.11 1.692.99a3.798 3.798 0 0 1-1.692 2.977c-.948.55-1.692.102-1.692-.99a3.798 3.798 0 0 1 1.692-2.978z" fill="#FAFAFA"/>
            <path d="M137.483 162.163v-10.397a6.598 6.598 0 0 1 .982-3.19l4.07 2.335a6.48 6.48 0 0 0-.957 3.181v10.449l-4.095-2.378z" fill="#95062D"/>
            <path d="M137.483 162.163v-10.397a6.598 6.598 0 0 1 .982-3.19l4.07 2.335a6.48 6.48 0 0 0-.957 3.181v10.449l-4.095-2.378z" fill="#95062D" opacity=".15"/>
            <path d="M351.467 29.196 144.777 148.55a6.49 6.49 0 0 0-2.25 2.377l-4.062-2.352a6.286 6.286 0 0 1 2.217-2.335L347.38 26.886a2.268 2.268 0 0 1 2.327-.194c.575.355 3.224 1.86 3.9 2.225a2.31 2.31 0 0 0-2.14.279z" fill="#DDD"/>
            <path d="M351.467 29.196 144.777 148.55a6.49 6.49 0 0 0-2.25 2.377l-4.062-2.352a6.286 6.286 0 0 1 2.217-2.335L347.38 26.886a2.268 2.268 0 0 1 2.327-.194c.575.355 3.224 1.86 3.9 2.225a2.31 2.31 0 0 0-2.14.279z" fill="#DDD" opacity=".3"/>
            <path fill="#DDD" d="m141.595 164.185-.008 18.824L354.674 60.008V41.15z"/>
            <path fill="#DDD" opacity=".55" d="m141.595 164.185-.008 18.824L354.674 60.008V41.15z"/>
            <path fill="#94062D" d="m141.578 164.54-4.095-2.394v18.511l4.087 2.352z"/>
            <path fill="#FFF" opacity=".3" d="m141.578 164.54-4.095-2.394v18.511l4.087 2.352z"/>
            <g opacity=".75" fill="#FFF">
                <path d="m152.122 163.145 16.373-9.408v9.382l-16.382 9.459zM172.54 151.36v3.705l8.165-4.712v-3.705zM172.54 157.087v3.706l8.165-4.712v-3.714zM184.783 144.287l.009 3.706 8.165-4.713v-3.714zM184.783 150.015l.009 3.705 8.165-4.712v-3.714zM197.035 137.215v3.705l8.174-4.712v-3.714zM197.035 142.942v3.706l8.174-4.713v-3.714zM233.784 116.005v3.706l8.174-4.713v-3.714zM233.784 121.724v3.714l8.174-4.712v-3.714zM246.036 108.924v3.714l8.166-4.72v-3.706zM246.036 114.651v3.714l8.166-4.712v-3.714zM258.288 101.851v3.714l8.166-4.72v-3.706zM258.288 107.579v3.714l8.166-4.721v-3.706zM209.288 130.142l20.417-11.785v9.425l-20.417 11.784zM270.54 94.787l16.374-9.408v9.383l-16.373 9.458zM290.958 83.002v3.706l8.174-4.713v-3.714zM290.958 88.73v3.705l8.174-4.712v-3.714zM303.21 75.93v3.705l8.166-4.712v-3.714zM303.21 81.657v3.706l8.166-4.713v-3.714zM315.463 68.848v3.714l8.165-4.72v-3.706zM315.463 74.576v3.714l8.165-4.712v-3.714zM327.715 61.784 348.133 50v9.425l-20.418 11.785z"/>
            </g>
            <path d="M262.688 88.129v.702c0 1.108.779 1.557 1.735 1.007L314.025 61.2a3.84 3.84 0 0 0 1.743-3.011v-.703c0-1.108-.779-1.556-1.735-.998l-49.61 28.62a3.858 3.858 0 0 0-1.735 3.021z" fill="#F5F5F5"/>
            <path d="M315.768 58.18v-.702c0-1.108-.779-1.557-1.735-.998l-6.43 3.705v4.713l6.422-3.706a3.84 3.84 0 0 0 1.743-3.012z" fill="#FF9600"/>
            <path d="M348.336 156.317c-3.47 1.574-5.974 2.708-6.964 4.882a5.591 5.591 0 0 0 .288 5.398c.488.755.741 1.638.728 2.538a8.308 8.308 0 0 1-3.757 6.514c-2.065 1.201-3.749.22-3.749-2.174a9.694 9.694 0 0 1 .728-3.384c.762-1.989 1.295-4.687.288-5.728-1.007-1.04-2.928.406-5.923 2.538-1.642 1.168-3.673 2.623-5.983 3.976 0-2.284.06-4.433.102-6.345.152-6.582.245-10.93-.956-12.005-1.058-.939-2.606.77-3.613 2.538a5.922 5.922 0 0 1-1.93 2.242c-1.531.897-2.826-.99-2.826-4.179 0-3.19 1.27-6.506 2.826-7.403a1.836 1.836 0 0 1 1.93 0c1.007.593 2.538.516 3.613-1.65 1.396-2.867 1.134-8.519.761-16.344-.042-.846-.084-1.777-.127-2.69a307.524 307.524 0 0 0 3.825-2.285c4.358-2.64 7.505-4.551 8.563-3.46.846.846.347 3.198-.313 4.94-.513 1.21-.8 2.503-.846 3.816 0 2.733 1.87 3.883 4.163 2.538a9.365 9.365 0 0 0 4.154-7.368 5.075 5.075 0 0 0-.846-2.877 4.754 4.754 0 0 1-.313-4.577c1.066-2.335 4.062-3.976 8.208-6.243 1.176-.652 2.403-1.32 3.723-2.082v-.626c-1.32.762-2.538 1.439-3.723 2.082-4.23 2.326-7.31 4.01-8.504 6.615a5.574 5.574 0 0 0 .288 5.39c.492.753.749 1.637.736 2.537a8.3 8.3 0 0 1-3.757 6.506c-2.073 1.202-3.757.22-3.757-2.174a9.567 9.567 0 0 1 .736-3.384c.762-1.988 1.286-4.678.28-5.727-1.177-1.219-4.4.736-8.86 3.443-1.227.744-2.487 1.514-3.841 2.3-.356-7.918-.584-16.539.905-19.584.846-1.785 2.209-1.81 3.089-1.295.665.415 1.509.415 2.174 0 1.777-1.023 3.224-4.729 3.224-8.257 0-3.528-1.447-5.566-3.224-4.543a6.54 6.54 0 0 0-2.174 2.538c-.847 1.532-2.217 3.046-3.089 2.268-1.447-1.295-1.134-8.57-.745-17.767l-.406.195c-.414 9.746-.71 16.793.846 18.206 1.058.94 2.607-.77 3.614-2.538a5.762 5.762 0 0 1 1.929-2.242c1.557-.905 2.826.965 2.826 4.146 0 3.18-1.27 6.514-2.826 7.41a1.836 1.836 0 0 1-1.93 0c-1.006-.592-2.538-.515-3.613 1.642-1.455 2.986-1.48 9.907-1.032 20.101a137.36 137.36 0 0 0-3.384 2.03c-4.231 2.539-6.82 4.095-7.904 2.979-.846-.847-.355-3.198.314-4.941.514-1.21.8-2.503.846-3.816 0-2.732-1.862-3.891-4.155-2.538a9.365 9.365 0 0 0-4.163 7.369 5.075 5.075 0 0 0 .846 2.876 4.754 4.754 0 0 1 .313 4.569c-1.074 2.343-4.467 4.23-8.774 6.573-1.134.626-2.319 1.278-3.554 1.989-.381-8.579-.542-15.372.905-18.334.846-1.785 2.209-1.818 3.089-1.302a2.065 2.065 0 0 0 2.174 0c1.777-1.024 3.224-4.738 3.224-8.266 0-3.528-1.447-5.567-3.224-4.535a6.49 6.49 0 0 0-2.174 2.539c-.847 1.53-2.217 3.045-3.089 2.267-1.49-1.328-1.108-10.288-.744-18.95l-.407.194c-.457 10.82-.643 18.011.847 19.365 1.057.939 2.606-.77 3.613-2.538a5.83 5.83 0 0 1 1.929-2.242c1.557-.897 2.826.964 2.826 4.154s-1.27 6.506-2.826 7.411a1.853 1.853 0 0 1-1.93 0c-1.006-.592-2.538-.516-3.612 1.65-1.574 3.223-1.43 9.847-1.033 18.857-2.31 1.354-4.383 2.826-6.058 4.019-2.86 2.039-4.925 3.51-5.763 2.648-.837-.863-.346-3.198.314-4.94.513-1.21.8-2.503.846-3.816 0-2.741-1.862-3.892-4.155-2.538a9.348 9.348 0 0 0-4.155 7.36 5.075 5.075 0 0 0 .847 2.876 4.78 4.78 0 0 1 .313 4.577c-.846 1.853-2.903 2.767-5.763 4.027a61.511 61.511 0 0 0-5.737 2.817v-2.673c.077-8.595.136-14.805-1.277-16.074-1.058-.948-2.606.77-3.613 2.538a5.922 5.922 0 0 1-1.93 2.242c-1.556.897-2.826-.965-2.826-4.154 0-3.19 1.27-6.514 2.826-7.411a1.82 1.82 0 0 1 1.93 0c1.007.592 2.538.516 3.613-1.65 1.582-3.249 1.633-10.152 1.218-19.407l-.397.27c.346 7.902.456 15.652-1.1 18.85-.847 1.785-2.209 1.818-3.089 1.302a2.065 2.065 0 0 0-2.175 0c-1.776 1.024-3.223 4.73-3.223 8.266 0 3.536 1.447 5.558 3.223 4.534a6.49 6.49 0 0 0 2.175-2.538c.846-1.53 2.217-3.045 3.089-2.267 1.286 1.142 1.235 7.242 1.159 15.685v2.674c-1.227.71-2.403 1.353-3.537 1.97-4.578 2.539-7.878 4.332-9.07 6.947a5.6 5.6 0 0 0 .278 5.389c.493.754.75 1.637.736 2.538a8.3 8.3 0 0 1-3.756 6.506c-2.065 1.2-3.757.22-3.757-2.175a9.567 9.567 0 0 1 .736-3.384c.761-1.988 1.294-4.678.287-5.727-1.193-1.235-3.816.347-8.148 2.96-1.075.652-2.26 1.363-3.537 2.107v-2.766c.076-8.401.127-13.477-1.278-14.73-1.057-.938-2.606.77-3.613 2.539a5.83 5.83 0 0 1-1.929 2.242c-1.557.897-2.826-.965-2.826-4.154 0-3.19 1.27-6.506 2.826-7.411a1.82 1.82 0 0 1 1.93 0c1.006.592 2.538.507 3.612-1.65 1.337-2.733 1.693-9.306 1.219-20.609l-.406.28c.49 10.998.135 17.529-1.092 20.041-.846 1.786-2.208 1.82-3.088 1.303a2.065 2.065 0 0 0-2.175 0c-1.777 1.024-3.224 4.738-3.224 8.266 0 3.528 1.447 5.567 3.224 4.534a6.49 6.49 0 0 0 2.175-2.538c.846-1.53 2.217-3.045 3.088-2.267 1.278 1.142 1.227 6.396 1.16 14.382v2.775a203.666 203.666 0 0 0-3.86 2.301c-4.34 2.64-7.488 4.552-8.545 3.46-.846-.845-.347-3.197.313-4.94.514-1.21.8-2.503.846-3.816 0-2.74-1.862-3.891-4.155-2.538a9.348 9.348 0 0 0-4.154 7.36 5.075 5.075 0 0 0 .846 2.877 4.77 4.77 0 0 1 .313 4.577c-1.066 2.326-3.968 3.925-7.988 6.125-1.066.584-2.259 1.235-3.52 1.963v-2.674c.076-8.595.136-14.805-1.277-16.074-1.058-.947-2.607.77-3.613 2.538a5.922 5.922 0 0 1-1.93 2.242c-1.557.897-2.826-.964-2.826-4.154s1.27-6.514 2.826-7.41a1.82 1.82 0 0 1 1.93 0c1.006.591 2.538.507 3.613-1.65 1.582-3.25 1.633-10.153 1.218-19.408l-.398.27c.347 7.902.457 15.652-1.1 18.85-.846 1.785-2.208 1.819-3.088 1.303a2.065 2.065 0 0 0-2.175 0c-1.777 1.023-3.224 4.729-3.224 8.265 0 3.537 1.447 5.559 3.224 4.535a6.49 6.49 0 0 0 2.175-2.538c.846-1.531 2.217-3.046 3.088-2.268 1.287 1.143 1.227 7.242 1.151 15.686v2.673a191.082 191.082 0 0 1-3.537 1.971c-4.577 2.538-7.877 4.332-9.07 6.946a5.574 5.574 0 0 0 .279 5.389c.492.754.748 1.638.736 2.538a8.3 8.3 0 0 1-3.757 6.506c-2.065 1.201-3.757.22-3.757-2.174a9.567 9.567 0 0 1 .736-3.384c.762-1.989 1.295-4.679.288-5.728-1.176-1.21-3.926.465-8.09 2.995-1.142.694-2.428 1.48-3.816 2.276-.084-1.988-.203-3.867-.313-5.685-.372-6.253-.677-11.185.415-13.427.846-1.785 2.208-1.81 3.088-1.294.666.415 1.51.415 2.175 0 1.785-1.024 3.232-4.73 3.232-8.257 0-3.528-1.447-5.567-3.232-4.543a6.608 6.608 0 0 0-2.175 2.538c-.846 1.531-2.216 3.045-3.088 2.267-1.015-.914-.745-5.076-.364-10.863.152-2.216.313-4.737.432-7.394l-.406.195c-.11 2.648-.28 5.152-.424 7.36-.397 5.922-.676 10.27.483 11.311 1.159 1.04 2.606-.77 3.613-2.538a5.83 5.83 0 0 1 1.93-2.242c1.556-.905 2.825.956 2.825 4.146s-1.269 6.514-2.826 7.41a1.82 1.82 0 0 1-1.93 0c-1.006-.583-2.538-.507-3.612 1.65-1.227 2.539-.94 7.335-.533 14.002.11 1.802.22 3.672.304 5.634-1.26.72-2.462 1.388-3.63 2.022-4.518 2.47-7.776 4.23-8.952 6.845a5.574 5.574 0 0 0 .28 5.389c.492.754.748 1.637.735 2.538a8.333 8.333 0 0 1-3.757 6.514c-2.073 1.193-3.756.22-3.756-2.183a9.567 9.567 0 0 1 .736-3.384c.761-1.988 1.294-4.678.279-5.719-1.168-1.218-4.01.508-8.31 3.114a139.467 139.467 0 0 1-4.002 2.394v.626c1.447-.846 2.81-1.692 4.011-2.403 4.23-2.538 6.964-4.23 8.013-3.139.846.846.347 3.198-.313 4.941a10.684 10.684 0 0 0-.846 3.816c0 2.732 1.862 3.891 4.155 2.538a9.357 9.357 0 0 0 4.154-7.37 5.075 5.075 0 0 0-.846-2.875 4.754 4.754 0 0 1-.313-4.569c1.058-2.326 4.417-4.162 8.656-6.48a184.969 184.969 0 0 0 3.672-2.048c.077 1.6.153 3.114.229 4.535.355 6.489.61 11.176-.55 13.536-.846 1.777-2.209 1.81-3.089 1.294a2.056 2.056 0 0 0-2.174 0c-1.777 1.024-3.224 4.73-3.224 8.258 0 3.527 1.447 5.566 3.224 4.543a6.608 6.608 0 0 0 2.174-2.538c.847-1.532 2.217-3.046 3.089-2.268 1.083.973.981 5.694.846 12.242 0 1.92-.093 4.095-.11 6.354l-.27.126-.974.61c-5.677 3.282-10.154 5.922-11.431 4.568-.846-.846-.347-3.198.321-4.932.51-1.21.796-2.503.846-3.816 0-2.74-1.87-3.891-4.163-2.538a9.365 9.365 0 0 0-4.188 7.335 5.152 5.152 0 0 0 .846 2.877 4.729 4.729 0 0 1 .313 4.577c-1.286 2.825-5.585 5.296-11 8.46l-1.083.626v.626l1.083-.626 1.032-.601c5.221-3.012 8.961-5.296 10.29-8.19a5.591 5.591 0 0 0-.288-5.397 4.568 4.568 0 0 1-.736-2.538 8.324 8.324 0 0 1 3.689-6.523c2.073-1.201 3.757-.22 3.757 2.175a9.567 9.567 0 0 1-.736 3.384c-.753 1.988-1.286 4.687-.28 5.727 1.388 1.404 5.72-1.134 11.728-4.577l.923-.533c-.398 9.4-.652 16.159.896 17.538 1.058.94 2.607-.77 3.605-2.538a5.83 5.83 0 0 1 1.938-2.242c1.557-.897 2.817.965 2.817 4.146 0 3.18-1.26 6.514-2.817 7.41a1.845 1.845 0 0 1-1.938 0c-.998-.592-2.538-.515-3.605 1.642-1.59 3.249-1.43 12.182-1.023 21.353l.406-.279c-.381-8.587-.576-17.766.897-20.787.846-1.785 2.208-1.81 3.088-1.294a2.082 2.082 0 0 0 2.175 0c1.777-1.032 3.224-4.738 3.224-8.265 0-3.528-1.447-5.567-3.224-4.544a6.54 6.54 0 0 0-2.175 2.539c-.846 1.53-2.217 3.045-3.088 2.267-1.413-1.26-1.151-8.249-.779-17.157l.093-.06 1.092-.626 1.04-.6c5.204-3.004 8.953-5.288 10.273-8.19a5.574 5.574 0 0 0-.28-5.389 4.526 4.526 0 0 1-.735-2.538 8.333 8.333 0 0 1 3.756-6.514c2.065-1.193 3.757-.22 3.757 2.183a9.6 9.6 0 0 1-.736 3.384c-.761 1.988-1.294 4.678-.287 5.719 1.387 1.438 4.831-.55 10.517-3.85l1.346-.778c.338 7.707.406 15.17-1.117 18.29-.846 1.786-2.209 1.82-3.089 1.304a2.065 2.065 0 0 0-2.174 0c-1.777 1.023-3.224 4.737-3.224 8.265 0 3.528 1.447 5.567 3.224 4.535a6.49 6.49 0 0 0 2.174-2.538c.846-1.531 2.217-3.046 3.089-2.267 1.294 1.15 1.227 8.375 1.15 16.734v2.901l.398-.228v-2.893c.076-8.858.144-15.855-1.278-17.124-1.057-.947-2.606.77-3.613 2.538a5.83 5.83 0 0 1-1.929 2.242c-1.557.897-2.826-.964-2.826-4.154 0-3.189 1.27-6.505 2.826-7.41a1.836 1.836 0 0 1 1.93 0c1.006.592 2.538.515 3.612-1.65 1.549-3.173 1.634-9.806 1.244-18.79 1.735-.99 3.326-1.785 4.739-2.488 1.201-.609 2.259-1.133 3.181-1.692 1.786-1.032 3.038-2.064 3.74-3.595a5.574 5.574 0 0 0-.287-5.39 4.576 4.576 0 0 1-.728-2.537 8.333 8.333 0 0 1 3.757-6.515c2.064-1.192 3.748-.22 3.748 2.183a9.694 9.694 0 0 1-.727 3.384c-.762 1.988-1.295 4.679-.288 5.72 1.007 1.04 3.503-.525 7.226-2.962 1.633-1.074 3.478-2.292 5.5-3.46l.102-.06c.457 10.677.093 17.082-1.117 19.552-.846 1.794-2.209 1.82-3.089 1.303a2.065 2.065 0 0 0-2.174 0c-1.777 1.032-3.224 4.738-3.224 8.266 0 3.527 1.447 5.566 3.224 4.534a6.49 6.49 0 0 0 2.174-2.538c.846-1.531 2.217-3.046 3.089-2.267 1.218 1.091 1.159 6.633 1.066 14.314v4.188l.406-.228c0-1.455 0-2.851.042-4.188.093-8.122.153-13.494-1.193-14.695-1.057-.94-2.606.77-3.613 2.538a5.83 5.83 0 0 1-1.93 2.242c-1.556.896-2.825-.965-2.825-4.154 0-3.19 1.269-6.506 2.826-7.403a1.836 1.836 0 0 1 1.93 0c1.006.592 2.538.516 3.612-1.692 1.312-2.69 1.693-9.086 1.244-20.067a180.5 180.5 0 0 1 3.224-1.802c1.032-.567 1.963-1.075 2.843-1.582 2.86-1.65 4.925-3.13 5.83-5.127a5.591 5.591 0 0 0-.28-5.398 4.483 4.483 0 0 1-.735-2.538 8.316 8.316 0 0 1 3.757-6.514c2.073-1.193 3.756-.22 3.756 2.174a9.6 9.6 0 0 1-.736 3.384c-.761 1.988-1.294 4.679-.287 5.72 1.167 1.2 3.96-.5 8.19-3.089 1.177-.719 2.539-1.53 3.927-2.352a933.24 933.24 0 0 1-.237 4.899c-.364 7.013-.627 12.08.66 13.223 1.057.948 2.606-.77 3.613-2.538a5.922 5.922 0 0 1 1.929-2.242c1.557-.897 2.826.965 2.826 4.154 0 3.19-1.27 6.514-2.826 7.411a1.82 1.82 0 0 1-1.93 0c-1.006-.592-2.538-.516-3.612 1.65-1.075 2.166-.847 6.193-.593 11.734.127 2.69.28 5.744.305 9.052l.406-.237c0-3.324-.178-6.395-.313-9.094-.254-5.178-.457-9.264.474-11.168.93-1.903 2.208-1.819 3.088-1.302a2.065 2.065 0 0 0 2.175 0c1.785-1.024 3.232-4.73 3.232-8.266 0-3.536-1.447-5.567-3.232-4.535a6.557 6.557 0 0 0-2.175 2.538c-.846 1.54-2.217 3.046-3.088 2.268-1.142-1.024-.889-5.922-.542-12.792.085-1.557.17-3.223.246-4.958 1.26-.719 2.462-1.387 3.528-1.97 1.066-.585 1.92-1.05 2.75-1.532 2.75-1.582 4.629-2.961 5.534-4.95a5.617 5.617 0 0 0-.28-5.397 4.483 4.483 0 0 1-.735-2.538 8.316 8.316 0 0 1 3.757-6.514c2.064-1.193 3.748-.22 3.748 2.183a9.728 9.728 0 0 1-.728 3.384c-.761 1.988-1.294 4.678-.287 5.719 1.176 1.218 4.002-.5 8.292-3.114 1.15-.702 2.462-1.497 3.841-2.3.119 2.427.28 4.66.415 6.632.38 5.288.652 9.103-.364 11.184-.846 1.785-2.208 1.82-3.088 1.303a2.065 2.065 0 0 0-2.175 0c-1.777 1.032-3.224 4.738-3.224 8.266 0 3.527 1.447 5.566 3.224 4.534a6.49 6.49 0 0 0 2.175-2.538c.846-1.531 2.217-3.045 3.088-2.267 1.134 1.015.846 7.276.432 14.526-.093 1.836-.195 3.74-.28 5.66l.407-.195c.076-1.912.177-3.815.27-5.643.407-7.724.728-13.824-.55-14.957-1.057-.94-2.606.77-3.613 2.538a5.762 5.762 0 0 1-1.929 2.242c-1.557.896-2.826-.965-2.826-4.154 0-3.19 1.27-6.506 2.826-7.403a1.836 1.836 0 0 1 1.93 0c1.006.592 2.538.516 3.612-1.65 1.16-2.377.897-6.108.491-11.768-.144-1.954-.296-4.17-.414-6.573l.846-.5 1.04-.591c5.213-3.012 8.953-5.296 10.273-8.198a5.574 5.574 0 0 0-.28-5.39 4.526 4.526 0 0 1-.736-2.537 8.333 8.333 0 0 1 3.757-6.515c2.073-1.193 3.757-.211 3.757 2.183a9.567 9.567 0 0 1-.736 3.384c-.761 1.988-1.294 4.679-.28 5.728 1.389 1.43 5.552-.982 11.314-4.324l1.227-.71c.068 1.506.144 2.935.211 4.28.356 6.65.601 11.456-.566 13.858-.847 1.777-2.209 1.81-3.089 1.295a2.082 2.082 0 0 0-2.175 0c-1.776 1.032-3.223 4.737-3.223 8.265 0 3.528 1.447 5.567 3.223 4.543a6.608 6.608 0 0 0 2.175-2.538c.846-1.531 2.217-3.045 3.089-2.267 1.184 1.057.846 7.673.49 15.338-.076 1.548-.16 3.139-.228 4.746l.406-.194c.068-1.6.144-3.19.22-4.738.398-8.147.71-14.577-.61-15.761-1.057-.94-2.605.77-3.612 2.538a5.83 5.83 0 0 1-1.93 2.242c-1.556.897-2.826-.965-2.826-4.146 0-3.18 1.27-6.514 2.826-7.41a1.836 1.836 0 0 1 1.93 0c1.007.591 2.538.515 3.613-1.642 1.311-2.69 1.049-7.614.694-14.424a382.2 382.2 0 0 1-.212-4.23c2.327-1.354 4.366-2.818 6.008-3.994 2.851-2.039 4.738-3.384 5.567-2.538.83.846.356 3.198-.313 4.933a10.912 10.912 0 0 0-.846 3.815c0 2.741 1.862 3.892 4.155 2.538a9.373 9.373 0 0 0 4.163-7.369 5.152 5.152 0 0 0-.846-2.876 4.729 4.729 0 0 1-.313-4.577c.846-1.887 3.384-3.046 6.634-4.51a66.91 66.91 0 0 0 6.1-3.045v-.618c-2.124 1.405-4.188 2.344-6.016 3.181zm-146.774 85.448c-5.576 3.231-8.944 5.186-10.213 3.874-.846-.846-.355-3.198.313-4.94.514-1.21.8-2.503.846-3.816 0-2.732-1.861-3.892-4.154-2.538a9.365 9.365 0 0 0-4.163 7.369 5.075 5.075 0 0 0 .846 2.876 4.754 4.754 0 0 1 .313 4.569c-1.295 2.825-5.593 5.304-11 8.46l-.846.507c0-2.25.06-4.416.101-6.336.153-6.709.254-11.557-.956-12.64-1.057-.939-2.606.77-3.613 2.538a5.83 5.83 0 0 1-1.93 2.242c-1.556.906-2.825-.964-2.825-4.145 0-3.181 1.269-6.514 2.826-7.411a1.836 1.836 0 0 1 1.93 0c1.006.592 2.538.516 3.612-1.641 1.295-2.657 1.05-7.217.677-14.12-.076-1.405-.16-2.902-.228-4.476 1.37-.803 2.657-1.582 3.79-2.267 4.054-2.47 6.77-4.103 7.785-3.012.846.846.355 3.198-.313 4.932a10.751 10.751 0 0 0-.846 3.824c0 2.733 1.861 3.884 4.154 2.538a9.373 9.373 0 0 0 4.164-7.368 5.075 5.075 0 0 0-.847-2.877 4.77 4.77 0 0 1-.313-4.577c1.075-2.343 4.468-4.23 8.775-6.573a223.63 223.63 0 0 0 3.528-1.971c-.11 2.377-.245 4.653-.389 6.852-.414 6.726-.72 11.582.466 12.64 1.057.947 2.606-.77 3.613-2.538a5.762 5.762 0 0 1 1.929-2.242c1.557-.897 2.826.964 2.826 4.154s-1.27 6.505-2.826 7.41a1.82 1.82 0 0 1-1.93 0c-1.006-.583-2.538-.515-3.612 1.65-1.21 2.47-.948 6.464-.567 12.521.118 1.76.245 3.748.338 5.872l-1.26.66zm26.096-14.856c-3.478 2.284-5.983 3.934-6.905 2.978-.922-.956-.355-3.198.313-4.941.51-1.21.797-2.503.846-3.816 0-2.732-1.861-3.891-4.154-2.538a9.365 9.365 0 0 0-4.163 7.37 5.152 5.152 0 0 0 .846 2.876 4.729 4.729 0 0 1 .321 4.568c-.939 2.047-3.317 3.24-6.617 4.89-1.421.71-3.02 1.514-4.78 2.538l-.127.085c-.102-2.158-.229-4.171-.339-5.922-.364-5.66-.626-9.755.44-11.938.846-1.785 2.209-1.819 3.089-1.303a2.065 2.065 0 0 0 2.174 0c1.777-1.023 3.224-4.729 3.224-8.265 0-3.536-1.447-5.567-3.224-4.535a6.49 6.49 0 0 0-2.174 2.538c-.846 1.54-2.217 3.046-3.089 2.268-1.04-.931-.736-5.922-.338-12.2.135-2.216.279-4.51.389-6.912a196.06 196.06 0 0 1 3.52-1.963c1.066-.583 1.904-1.049 2.742-1.53 2.758-1.591 4.636-2.962 5.542-4.958a5.591 5.591 0 0 0-.28-5.398 4.483 4.483 0 0 1-.736-2.538 8.316 8.316 0 0 1 3.757-6.514c2.073-1.193 3.757-.22 3.757 2.174a9.6 9.6 0 0 1-.736 3.384c-.761 1.988-1.286 4.678-.28 5.719 1.177 1.218 4.392-.736 8.843-3.435 1.219-.744 2.48-1.506 3.833-2.284l-.084 1.971c-.373 8.46-.643 14.628.846 15.922 1.058.94 2.606-.77 3.613-2.538a5.981 5.981 0 0 1 1.82-2.31c1.556-.896 2.825.965 2.825 4.154 0 3.19-1.269 6.515-2.826 7.411a1.82 1.82 0 0 1-1.93 0c-1.006-.583-2.538-.507-3.612 1.692-1.456 2.978-1.48 9.882-1.032 20.06-1.972 1.065-3.732 2.216-5.314 3.273v-.033zm31.587-18.503c-4.13 2.538-6.846 4.18-7.887 3.105-.846-.846-.355-3.198.314-4.94.513-1.21.8-2.503.846-3.816 0-2.741-1.862-3.892-4.155-2.538a9.357 9.357 0 0 0-4.163 7.36 5.075 5.075 0 0 0 .846 2.877 4.78 4.78 0 0 1 .313 4.577c-1.066 2.335-4.298 4.103-8.385 6.353-1.126.618-2.293 1.26-3.537 1.971-.347-7.893-.575-16.488.905-19.534.846-1.785 2.209-1.81 3.089-1.303a2.065 2.065 0 0 0 2.174 0c1.786-1.024 3.233-4.73 3.233-8.257 0-3.528-1.447-5.567-3.233-4.543a6.54 6.54 0 0 0-2.174 2.538c-.846 1.531-2.217 3.037-3.089 2.259-1.311-1.168-1.049-7.174-.685-15.49l.093-2.023c1.286-.744 2.47-1.463 3.554-2.115 4.078-2.461 6.77-4.086 7.844-2.978.846.846.355 3.198-.313 4.933a10.946 10.946 0 0 0-.847 3.824c0 2.732 1.862 3.883 4.155 2.538a9.373 9.373 0 0 0 4.163-7.369 5.075 5.075 0 0 0-.846-2.876 4.77 4.77 0 0 1-.313-4.577c1.075-2.344 4.468-4.23 8.775-6.574 1.125-.617 2.301-1.26 3.528-1.971a323.431 323.431 0 0 1-.465 7.572c-.423 5.922-.728 10.253.414 11.269 1.143 1.015 2.606-.77 3.605-2.538a5.753 5.753 0 0 1 1.938-2.242c1.556-.906 2.817.956 2.817 4.145 0 3.19-1.26 6.514-2.817 7.411a1.836 1.836 0 0 1-1.938 0c-.999-.584-2.539-.508-3.605 1.65-1.218 2.538-.939 6.988-.558 13.206.118 1.827.237 3.714.33 5.761-1.413.83-2.75 1.642-3.926 2.37v-.035zm33.736-19.61c-1.38.795-2.674 1.59-3.825 2.284-4.18 2.538-6.938 4.23-7.988 3.139-.846-.846-.355-3.198.314-4.94.509-1.212.796-2.504.846-3.816 0-2.742-1.862-3.892-4.155-2.538a9.357 9.357 0 0 0-4.163 7.36 5.194 5.194 0 0 0 .846 2.885 4.729 4.729 0 0 1 .322 4.568c-1.066 2.327-3.969 3.926-7.988 6.117-1.066.592-2.276 1.252-3.537 1.98-.101-2.073-.22-3.977-.33-5.821-.364-5.82-.651-10.423.432-12.631.846-1.785 2.208-1.81 3.088-1.294a2.065 2.065 0 0 0 2.175 0c1.777-1.024 3.224-4.73 3.224-8.257 0-3.528-1.447-5.567-3.224-4.544a6.396 6.396 0 0 0-2.175 2.538c-.846 1.532-2.217 3.046-3.088 2.268-.999-.846-.686-5.27-.297-10.82.17-2.302.347-4.908.466-7.615a61.469 61.469 0 0 1 5.728-2.817 34.077 34.077 0 0 0 3.3-1.582 6.176 6.176 0 0 0 2.784-2.817 5.591 5.591 0 0 0-.28-5.398 4.483 4.483 0 0 1-.735-2.538 8.316 8.316 0 0 1 3.757-6.514c2.073-1.193 3.757-.22 3.757 2.174a9.6 9.6 0 0 1-.737 3.384c-.761 1.988-1.286 4.679-.279 5.72 1.007 1.04 3.004-.45 6.093-2.649 1.743-1.243 3.723-2.648 6.016-3.985v.889c-.406 9.357-.72 16.742.787 18.088 1.057.947 2.606-.77 3.613-2.539a5.83 5.83 0 0 1 1.929-2.241c1.557-.897 2.826.964 2.826 4.153 0 3.19-1.37 6.523-2.945 7.37a1.82 1.82 0 0 1-1.929 0c-1.007-.593-2.538-.517-3.613 1.691-1.557 3.19-1.413 9.797-1.015 18.782v-.034zm30.74-24.095c-.042 1.92-.093 4.078-.11 6.362l-1.226.711c-5.653 3.274-9.748 5.651-11 4.34-.847-.846-.356-3.198.313-4.94.514-1.21.8-2.503.846-3.816 0-2.733-1.862-3.883-4.155-2.538a9.365 9.365 0 0 0-4.163 7.369 5.075 5.075 0 0 0 .846 2.876 4.762 4.762 0 0 1 .313 4.569c-1.294 2.825-5.584 5.296-11 8.46l-.897.516c-.38-8.553-.541-15.33.906-18.291.846-1.785 2.208-1.819 3.088-1.303a2.065 2.065 0 0 0 2.175 0c1.777-1.024 3.224-4.73 3.224-8.265 0-3.537-1.447-5.567-3.224-4.535a6.49 6.49 0 0 0-2.175 2.538c-.846 1.531-2.217 3.046-3.088 2.267-1.37-1.218-1.04-8.849-.669-17.673l.043-.93a194.6 194.6 0 0 1 3.554-1.989c4.569-2.538 7.869-4.323 9.062-6.937a5.591 5.591 0 0 0-.28-5.397 4.483 4.483 0 0 1-.736-2.538 8.333 8.333 0 0 1 3.757-6.515c2.073-1.193 3.757-.22 3.757 2.183a9.567 9.567 0 0 1-.736 3.384c-.761 1.988-1.294 4.678-.28 5.719 1.016 1.04 2.785.212 5.662-1.455.77-.44 1.616-.948 2.538-1.506 1.05-.626 2.192-1.311 3.436-2.03.042.93.084 1.844.126 2.724.356 7.377.627 13.197-.634 15.786-.846 1.785-2.209 1.82-3.089 1.303a2.065 2.065 0 0 0-2.174 0c-1.786 1.032-3.233 4.738-3.233 8.266 0 3.528 1.447 5.566 3.233 4.534a6.557 6.557 0 0 0 2.174-2.538c.847-1.531 2.217-3.045 3.089-2.267.964.947.863 5.414.728 11.59v-.034z" fill="#999"/>
            <path d="M271.768 178.06c0 3.19-1.27 6.514-2.826 7.411a1.82 1.82 0 0 1-1.93 0c-1.007-.584-2.538-.508-3.613 1.65-1.218 2.538-.939 6.988-.55 13.206.119 1.827.237 3.714.33 5.761a283.41 283.41 0 0 0-3.943 2.37c-4.12 2.537-6.837 4.178-7.878 3.104-.846-.846-.355-3.198.314-4.94.509-1.211.796-2.504.846-3.816 0-2.741-1.862-3.892-4.155-2.538a9.357 9.357 0 0 0-4.163 7.36 5.152 5.152 0 0 0 .846 2.876 4.754 4.754 0 0 1 .322 4.577c-1.075 2.335-4.299 4.104-8.386 6.354-1.125.618-2.293 1.26-3.537 1.971-.347-7.893-.583-16.489.906-19.534.846-1.785 2.208-1.82 3.088-1.303a2.065 2.065 0 0 0 2.175 0c1.777-1.024 3.224-4.73 3.224-8.266 0-3.536-1.447-5.558-3.224-4.534a6.557 6.557 0 0 0-2.175 2.538c-.846 1.54-2.217 3.045-3.088 2.267-1.312-1.167-1.05-7.174-.686-15.499l.085-2.013c1.286-.745 2.47-1.464 3.554-2.115 4.078-2.462 6.77-4.087 7.844-2.978.846.846.347 3.198-.313 4.932a10.717 10.717 0 0 0-.847 3.824c0 2.733 1.862 3.883 4.155 2.538a9.365 9.365 0 0 0 4.155-7.369 5.075 5.075 0 0 0-.846-2.876 4.77 4.77 0 0 1-.314-4.577c1.075-2.344 4.468-4.23 8.775-6.574a191.368 191.368 0 0 0 3.52-1.97 284.96 284.96 0 0 1-.457 7.57c-.423 5.923-.728 10.255.406 11.27 1.134 1.015 2.606-.77 3.613-2.538a5.922 5.922 0 0 1 1.93-2.25c1.573-.94 2.843.922 2.843 4.111z" fill="#E0E0E0"/>
            <path d="M201.8 269.26c1.285 1.15 1.226 8.375 1.15 16.734v2.902l-29.988 17.275c-.389-8.587-.575-17.766.897-20.786.846-1.785 2.2-1.81 3.089-1.294a2.065 2.065 0 0 0 2.174 0c1.777-1.024 3.224-4.73 3.224-8.258 0-3.527-1.447-5.566-3.224-4.543a6.464 6.464 0 0 0-2.174 2.538c-.889 1.532-2.226 3.046-3.089 2.268-1.413-1.26-1.15-8.249-.778-17.166l.093-.05 1.091-.627 1.033-.6c5.212-3.004 8.96-5.288 10.28-8.19a5.591 5.591 0 0 0-.287-5.397 4.534 4.534 0 0 1-.728-2.538 8.333 8.333 0 0 1 3.757-6.515c2.065-1.192 3.748-.22 3.748 2.183a9.728 9.728 0 0 1-.727 3.384c-.762 1.988-1.295 4.679-.288 5.72 1.388 1.437 4.832-.55 10.51-3.85l1.353-.778c.33 7.707.406 15.169-1.117 18.29-.846 1.785-2.208 1.82-3.088 1.303a2.065 2.065 0 0 0-2.175 0c-1.785 1.024-3.232 4.738-3.232 8.266 0 3.528 1.447 5.566 3.232 4.534a6.557 6.557 0 0 0 2.175-2.538c.88-1.531 2.217-3.045 3.088-2.267z" stroke="#E0E0E0" fill="#E0E0E0"/>
            <path d="M332.758 95.532c0 3.189-1.26 6.514-2.817 7.41a1.82 1.82 0 0 1-1.93 0c-1.006-.583-2.538-.507-3.613 1.693-1.455 2.986-1.48 9.906-1.032 20.1-1.235.72-2.378 1.405-3.384 2.031-4.231 2.538-6.812 4.095-7.895 2.978-.846-.846-.355-3.198.313-4.94.51-1.211.796-2.504.846-3.816 0-2.741-1.861-3.892-4.154-2.538a9.365 9.365 0 0 0-4.164 7.369 5.169 5.169 0 0 0 .847 2.876 4.729 4.729 0 0 1 .321 4.569c-1.074 2.343-4.468 4.23-8.774 6.573a194.605 194.605 0 0 0-3.554 1.988c-.381-8.578-.542-15.372.905-18.333.846-1.785 2.209-1.819 3.089-1.303a2.065 2.065 0 0 0 2.174 0c1.777-1.032 3.224-4.737 3.224-8.265 0-3.528-1.447-5.567-3.224-4.535a6.49 6.49 0 0 0-2.174 2.538c-.847 1.532-2.217 3.046-3.089 2.268-1.49-1.329-1.117-10.288-.745-18.951l29.7-17.183c-.414 9.746-.71 16.794.847 18.207 1.057.939 2.606-.77 3.613-2.538a5.762 5.762 0 0 1 1.929-2.242c1.48-.965 2.741.854 2.741 4.044z" fill="#E0E0E0"/>
        </g>
        <g>
            <path d="m451.652 323.176-2.141-1.26c-6.516-3.867-11.669-6.93-14.867-6.878-2.378 0-3.562 1.42-3.85 2.588a2.817 2.817 0 0 1-1.38 1.786c-.381.2-.788.347-1.21.44.07-.144.11-.299.12-.457v-8.012c.067-2.022-5.416-5.076-12.77-8.799l-1.87 1.04c-6.43 3.723-10.314 5.974-13.31 5.923a3.122 3.122 0 0 1-3.206-2.267 3.206 3.206 0 0 0-1.574-1.997c-2.056-1.184-5.88-.905-8.52.626-1.575.905-2.379 2.048-2.353 3.071v7.961a2.2 2.2 0 0 0 1.277 1.895c.236.135.482.251.737.347-1.388.846-2.92 1.692-4.544 2.648l-1.354.846v8.012s11.085 7.732 14.57 7.69c2.395 0 3.563-1.421 3.842-2.597.197-.759.7-1.402 1.388-1.777.382-.2.789-.348 1.21-.44-.07.14-.107.293-.11.449v8.011c-.093 2.065 6.862 5.872 14.385 9.67l.44-.287 34.607-19.966.474-.27.009-7.996z" fill="#FE9500"/>
            <g opacity=".2" fill="#000">
                <path d="M408.227 326.645c-2.386-1.38-5.788-1.692-7.615-.618a2.834 2.834 0 0 0-1.388 1.777 3.384 3.384 0 0 1-2.539 2.42v8.003a3.384 3.384 0 0 0 2.539-2.411c.197-.759.7-1.402 1.388-1.777.38-.203.787-.352 1.21-.44.49-1.074 2.538-1.616 4.383-1.768a7.329 7.329 0 0 0 3.071-.795c1.828-1.04 1.337-3.012-1.05-4.391zM428.323 311.417c-.085 1.37-2.47 2.039-4.501 2.2a7.388 7.388 0 0 0-3.08.803c-1.794 1.04-1.312 3.003 1.074 4.382a9.495 9.495 0 0 0 6.507 1.05h-.118c.07-.14.11-.293.118-.449v-.118c-.017-1.464 0-7.665 0-7.868z"/>
            </g>
            <path fill="#000" opacity=".2" d="M416.13 351.73v-8.013l35.522-20.524v8.012z"/>
            <path d="M416.105 343.227c-4.053-2.04-14.038-7.115-13.945-9.163 0-1.015 2.15-1.65 4.104-1.81a7.693 7.693 0 0 0 3.25-.846 2.318 2.318 0 0 0 1.302-1.997c0-1.108-.846-2.25-2.378-3.121a10.24 10.24 0 0 0-4.975-1.303c-1.055-.037-2.1.2-3.038.685a3.232 3.232 0 0 0-1.59 2.039c-.237 1.032-1.287 2.242-3.427 2.276-2.936 0-6.871-2.631-11.846-5.965l-1.947-1.303.804-.507c7.531-4.34 11.457-6.692 11.381-8.613-.076-1.776-3.325-2.182-4.324-2.258a7.803 7.803 0 0 1-3.274-.846 1.844 1.844 0 0 1-1.058-1.532c0-.888.804-1.878 2.14-2.656a10.29 10.29 0 0 1 5.027-1.303 6.28 6.28 0 0 1 3.071.685c.671.353 1.17.964 1.38 1.692a3.52 3.52 0 0 0 3.604 2.597c3.173 0 7.057-2.241 13.496-5.964l1.693-.947c4.738 2.402 12.404 6.32 12.337 8.299-.051.981-2.107 1.692-4.113 1.81a7.887 7.887 0 0 0-3.257.846 2.31 2.31 0 0 0-1.295 1.997c0 1.108.846 2.242 2.37 3.113a10.341 10.341 0 0 0 4.991 1.312 6.102 6.102 0 0 0 3.03-.686 3.24 3.24 0 0 0 1.582-2.047c.254-1.032 1.303-2.242 3.444-2.267 3.164 0 8.224 3.012 14.647 6.819l1.506.888-34.447 19.881-.245.195z" fill="#FAFAFA"/>
            <path d="M415.572 303.557c3.892 1.98 11.964 6.134 11.905 7.8 0 .55-1.532 1.244-3.723 1.422a8.158 8.158 0 0 0-3.436.913 2.707 2.707 0 0 0-1.506 2.36c0 1.261.94 2.539 2.581 3.478 1.59.893 3.38 1.365 5.204 1.37a6.533 6.533 0 0 0 3.24-.744 3.57 3.57 0 0 0 1.778-2.31c.22-.846 1.142-1.92 3.037-1.945h.068c2.978 0 8.25 3.13 14.385 6.768l.846.524-33.846 19.518c-3.08-1.549-6.829-3.503-9.553-5.22-3.876-2.445-3.952-3.334-3.944-3.435 0-.533 1.515-1.227 3.707-1.413a8.014 8.014 0 0 0 3.435-.905 2.716 2.716 0 0 0 1.515-2.36c0-1.27-.948-2.539-2.59-3.486a10.587 10.587 0 0 0-5.187-1.362 6.474 6.474 0 0 0-3.249.744 3.621 3.621 0 0 0-1.785 2.31c-.212.846-1.126 1.92-3.03 1.946h-.05c-2.759 0-6.65-2.606-11.567-5.922l-1.388-.93.237-.153c7.886-4.543 11.677-6.819 11.592-8.993-.084-2.175-3.325-2.538-4.713-2.665a7.396 7.396 0 0 1-3.097-.795 1.413 1.413 0 0 1-.846-1.168c0-.728.736-1.599 1.93-2.293a10.028 10.028 0 0 1 4.814-1.235 5.924 5.924 0 0 1 2.86.618 2.36 2.36 0 0 1 1.176 1.455 3.943 3.943 0 0 0 4.011 2.919h.093c3.207 0 7.125-2.268 13.649-6.04l1.472-.847m0-.956-1.87 1.04c-6.38 3.69-10.255 5.923-13.234 5.923h-.076a3.122 3.122 0 0 1-3.207-2.268 3.206 3.206 0 0 0-1.574-1.996 6.77 6.77 0 0 0-3.283-.728 10.832 10.832 0 0 0-5.238 1.354c-2.657 1.531-3.13 3.73-1.083 4.915a8.133 8.133 0 0 0 3.453.914c1.793.144 3.883.71 3.934 1.853.068 1.76-4.899 4.619-11.186 8.24l-1.354.846c6.372 4.23 11 7.69 14.512 7.69h.059c2.395 0 3.562-1.421 3.842-2.597.197-.759.699-1.402 1.387-1.777a5.772 5.772 0 0 1 2.826-.626 9.91 9.91 0 0 1 4.764 1.244c2.386 1.379 2.877 3.384 1.075 4.39a7.286 7.286 0 0 1-3.072.796c-2.039.17-4.442.846-4.493 2.216-.093 2.065 6.863 5.872 14.385 9.67l.44-.287 34.608-19.966.473-.27-2.14-1.261c-6.465-3.841-11.584-6.879-14.791-6.879h-.076c-2.378 0-3.563 1.422-3.85 2.59a2.817 2.817 0 0 1-1.38 1.784c-.87.446-1.84.661-2.817.626a10.003 10.003 0 0 1-4.781-1.252c-2.386-1.379-2.868-3.341-1.075-4.382a7.43 7.43 0 0 1 3.08-.804c2.04-.16 4.434-.846 4.502-2.216.068-2.022-5.415-5.076-12.769-8.799l.009.017z" fill="#E0E0E0"/>
        </g>
        <g>
            <path d="M491.844 288.744a5.526 5.526 0 0 0 1.193-.483 1.878 1.878 0 0 0 1.075-1.607v-7.944c0-.914-.745-1.946-2.167-2.767-2.394-1.379-5.787-1.692-7.615-.617a2.758 2.758 0 0 0-1.38 1.768c-.287 1.184-1.463 2.538-3.85 2.597-3.57.051-8.385-3.122-15.035-7.52l-34.219 19.813v7.935c5.923 3.909 12.04 7.944 15.4 7.902a3.122 3.122 0 0 0 3.199-2.267 3.232 3.232 0 0 1 1.573-1.997 6.542 6.542 0 0 1 3.097-.719 1.379 1.379 0 0 0-.846 1.083v7.936c-.076 1.886 5.272 4.763 12.312 8.316 1.43-.846 2.809-1.59 4.154-2.335 5.077-2.817 9.054-5.076 9.003-6.506v-7.935c0-.449-.363-.804-.846-1.092a6.643 6.643 0 0 1 3.097.728 3.257 3.257 0 0 1 1.574 1.996 3.105 3.105 0 0 0 3.207 2.268c2.538 0 5.475-1.692 10.298-4.577 1.184-.71 2.487-1.48 3.909-2.31v-7.935c-2.792-1.371-5.162-2.615-7.133-3.731z" fill="#25AFFA"/>
            <path d="M459.605 301.18a8.285 8.285 0 0 1-3.452.897c-1.06.058-2.1.32-3.063.77a6.508 6.508 0 0 0-3.088.727 3.139 3.139 0 0 0-1.574 1.988 2.944 2.944 0 0 1-1.794 1.997v-7.927a2.919 2.919 0 0 0 1.794-2.005 3.181 3.181 0 0 1 1.574-1.997c2.047-1.184 5.872-.897 8.52.626 2.649 1.523 3.131 3.731 1.083 4.924zM477.688 303.43v7.902c.059 1.472-3.926 3.697-8.995 6.506a441.24 441.24 0 0 0-4.155 2.352v-7.936c1.43-.846 2.81-1.607 4.155-2.352 5.035-2.8 8.995-5.008 8.995-6.472zM485.455 283.346c.06-1.37 2.463-2.056 4.502-2.217a7.371 7.371 0 0 0 3.071-.795 1.92 1.92 0 0 0 1.084-1.506v7.834a1.895 1.895 0 0 1-1.084 1.608 5.297 5.297 0 0 1-1.184.474c.245.143.5.27.753.423-4.57-2.538-7.192-4.459-7.142-5.821zM498.892 292.483v7.936c-1.421.846-2.716 1.599-3.9 2.3-4.832 2.877-7.743 4.611-10.307 4.578a3.825 3.825 0 0 1-.719-.077v-7.935c.237.048.478.073.72.076 2.538 0 5.474-1.692 10.306-4.585 1.184-.694 2.479-1.48 3.9-2.293z" fill="#000" opacity=".2"/>
            <path d="M464.538 311.755c-4.84-2.445-11.947-6.057-11.846-7.817 0-.677 1.515-1.278 3.537-1.447a8.564 8.564 0 0 0 3.63-.956 2.648 2.648 0 0 0 1.481-2.267c0-1.218-.93-2.453-2.538-3.384a11.213 11.213 0 0 0-5.45-1.413 7.066 7.066 0 0 0-3.494.795 3.57 3.57 0 0 0-1.769 2.26 2.716 2.716 0 0 1-2.8 1.945c-3.207 0-9.181-3.883-14.588-7.453l33.448-19.34c6.558 4.331 11.322 7.445 14.977 7.445h.085c2.623 0 3.934-1.59 4.23-2.919a2.386 2.386 0 0 1 1.185-1.506 5.29 5.29 0 0 1 2.606-.575c1.594.01 3.159.42 4.553 1.193 1.227.71 1.963 1.607 1.963 2.394a1.506 1.506 0 0 1-.846 1.26 6.838 6.838 0 0 1-2.894.736c-2.319.195-4.815.982-4.891 2.623-.068 1.878 3.224 4.23 12.98 9.18l-3.317 1.903c-4.738 2.817-7.615 4.518-10.018 4.518a2.75 2.75 0 0 1-2.869-1.946 3.63 3.63 0 0 0-1.768-2.26 7.109 7.109 0 0 0-3.503-.794 11.18 11.18 0 0 0-5.441 1.412c-1.633.94-2.539 2.175-2.539 3.385a2.623 2.623 0 0 0 1.481 2.267 8.657 8.657 0 0 0 3.622.964c1.997.153 3.52.77 3.553 1.439.043 1.21-4.442 3.705-8.783 6.116a296.336 296.336 0 0 0-3.977 2.242z" fill="#FAFAFA"/>
            <path d="M464.065 273.169c6.515 4.297 11.253 7.368 14.993 7.368h.094c2.86 0 4.298-1.768 4.653-3.248.137-.533.494-.982.982-1.236a4.95 4.95 0 0 1 2.395-.516 9.072 9.072 0 0 1 4.34 1.142c1.286.745 1.752 1.532 1.752 2.022a1.1 1.1 0 0 1-.66.897c-.85.42-1.778.653-2.725.685-1.21.094-5.17.61-5.28 3.03-.076 2.047 3.004 4.34 12.523 9.212l-2.538 1.532c-4.67 2.774-7.489 4.458-9.799 4.458h-.059a2.234 2.234 0 0 1-2.394-1.633c-.28-1.081-.993-2-1.972-2.538a7.473 7.473 0 0 0-3.715-.846 11.552 11.552 0 0 0-5.652 1.472c-1.768 1.015-2.775 2.386-2.775 3.757a3.012 3.012 0 0 0 1.692 2.63c1.18.613 2.48.962 3.808 1.024 2.022.153 3.139.762 3.156 1.024-.06 1.007-4.976 3.74-8.572 5.736-1.1.61-2.394 1.337-3.765 2.123-3.994-2.022-11.5-5.862-11.44-7.326 0-.27 1.134-.846 3.148-1.04a8.894 8.894 0 0 0 3.807-1.016 3.046 3.046 0 0 0 1.693-2.63c0-1.371-1.016-2.742-2.776-3.757a11.678 11.678 0 0 0-5.66-1.472 7.439 7.439 0 0 0-3.707.846 4.019 4.019 0 0 0-1.971 2.538 2.242 2.242 0 0 1-2.395 1.624h-.042c-2.928 0-8.538-3.579-13.733-7.005l32.627-18.866m0-.998-34.252 19.822c5.872 3.891 11.973 7.902 15.34 7.902h.06a3.122 3.122 0 0 0 3.199-2.268 3.232 3.232 0 0 1 1.573-1.996 6.77 6.77 0 0 1 3.284-.736c1.833 0 3.636.468 5.237 1.362 2.649 1.523 3.131 3.73 1.083 4.915a8.09 8.09 0 0 1-3.452.914c-1.785.135-3.884.71-3.926 1.844-.076 1.887 5.271 4.763 12.311 8.316 1.43-.846 2.81-1.59 4.155-2.343 5.077-2.809 9.054-5.034 9.003-6.497-.05-1.134-2.158-1.693-3.943-1.845a8.336 8.336 0 0 1-3.444-.905c-2.056-1.193-1.565-3.384 1.083-4.924a10.74 10.74 0 0 1 5.23-1.362 6.77 6.77 0 0 1 3.291.736 3.24 3.24 0 0 1 1.574 1.988 3.105 3.105 0 0 0 3.207 2.276h.067c2.539 0 5.45-1.734 10.23-4.577 1.185-.71 2.488-1.48 3.91-2.31-8.36-4.23-13.539-7.233-13.446-9.128.068-1.379 2.463-2.056 4.502-2.225a7.329 7.329 0 0 0 3.08-.795c1.794-1.032 1.303-3.004-1.092-4.383a9.825 9.825 0 0 0-4.764-1.252 5.712 5.712 0 0 0-2.817.635 2.758 2.758 0 0 0-1.38 1.768c-.287 1.184-1.463 2.538-3.85 2.597h-.076c-3.562 0-8.36-3.155-14.96-7.52l-.017-.01z" fill="#E0E0E0"/>
            <path d="M484 299.285v7.935a2.978 2.978 0 0 1-2.488-2.19 3.164 3.164 0 0 0-1.574-1.989 6.508 6.508 0 0 0-3.088-.727 8.403 8.403 0 0 0-3.063-.77 7.972 7.972 0 0 1-3.444-.897c-2.056-1.184-1.574-3.384 1.083-4.924 2.657-1.54 6.456-1.81 8.512-.617a3.139 3.139 0 0 1 1.574 1.988 2.978 2.978 0 0 0 2.488 2.19z" fill="#000" opacity=".3"/>
        </g>
        <g>
            <path d="M121.482 302.449c13.615-5.186 35.412-5.423 48.688-.533 13.276 4.89 13.36 13.045.203 18.223-13.158 5.178-34.963 5.423-48.696.542-13.733-4.882-13.818-13.046-.195-18.232z" fill="#BA68C8"/>
            <path d="M121.482 302.449c13.615-5.186 35.412-5.423 48.688-.533 13.276 4.89 13.36 13.045.203 18.223-13.158 5.178-34.963 5.423-48.696.542-13.733-4.882-13.818-13.046-.195-18.232z" opacity=".3" fill="#000"/>
            <path d="m110.398 286.003 70.137-.694-4.4 82.706h-.067c-.296 3.012-3.08 6.007-8.411 8.367-11.364 5.025-30.2 5.228-42.07.465-5.569-2.242-8.513-5.177-8.885-8.18h-.068l-6.236-82.664z" fill="#FAFAFA"/>
            <path d="m180.535 285.309-.846 16.793a31.19 31.19 0 0 1-5.83 3.206c-15.095 6.447-40.107 6.718-55.846.61-.677-.263-1.252-.55-1.87-.846a35.371 35.371 0 0 1-4.45-2.412l-1.261-16.657 70.103-.694z" fill="#EBEBEB"/>
            <path d="m105.998 288.49-.144-12.631 8.174-.093a39.282 39.282 0 0 1 3.587-1.658c15.62-6.455 40.616-6.768 55.847-.618a36.658 36.658 0 0 1 3.452 1.616l7.937-.085.144 12.631c0 4.112-3.707 8.274-11.254 11.498-15.096 6.446-40.108 6.717-55.846.617-7.895-3.08-11.855-7.157-11.897-11.277z" fill="#95062D"/>
            <path d="m105.998 288.49-.144-12.631 8.174-.093a39.282 39.282 0 0 1 3.587-1.658c15.62-6.455 40.616-6.768 55.847-.618a36.658 36.658 0 0 1 3.452 1.616l7.937-.085.144 12.631c0 4.112-3.707 8.274-11.254 11.498-15.096 6.446-40.108 6.717-55.846.617-7.895-3.08-11.855-7.157-11.897-11.277z" opacity=".2" fill="#95062D"/>
            <path d="M117.497 264.37c15.62-6.455 40.615-6.768 55.846-.618 15.23 6.15 15.35 16.295.254 22.741-15.095 6.447-40.108 6.718-55.846.618-15.739-6.1-15.874-16.294-.254-22.741z" fill="#E74242"/>
            <path d="m113.08 272.746 2.412-10.44 20.062-.22a81.617 81.617 0 0 1 19.952-.22l19.462-.22 2.657 10.389c1.303 3.773-1.693 7.766-8.944 10.761-12.447 5.076-33.068 5.322-46.056.508-7.658-2.826-10.806-6.76-9.545-10.558z" fill="#95062D"/>
            <path d="m113.08 272.746 2.412-10.44 20.062-.22a81.617 81.617 0 0 1 19.952-.22l19.462-.22 2.657 10.389c1.303 3.773-1.693 7.766-8.944 10.761-12.447 5.076-33.068 5.322-46.056.508-7.658-2.826-10.806-6.76-9.545-10.558z" fill="#95062D" opacity=".2"/>
            <path d="M124.14 255.555c11.845-4.45 30.765-4.662 42.307-.466 11.541 4.196 11.61 11.193.178 15.635-11.432 4.441-30.377 4.653-42.308.465-11.93-4.188-12.015-11.184-.178-15.634z" fill="#E74242"/>
            <path d="M119.435 263.44c0 .16.338.71 1.328 1.463a19.158 19.158 0 0 0 4.9 2.437c5.262 1.835 12.53 2.867 19.926 2.783 7.396-.085 14.52-1.252 19.538-3.198a16.822 16.822 0 0 0 4.68-2.538c.955-.795 1.218-1.37 1.218-1.514 0-.288-1.05-2.107-5.983-3.9-5.077-1.836-12.201-2.843-19.605-2.767-7.404.076-14.639 1.252-19.86 3.223-4.915 1.82-6.125 3.68-6.142 4.01z" fill="#BA68C8"/>
            <path d="M119.435 263.44c0 .16.338.71 1.328 1.463a19.158 19.158 0 0 0 4.9 2.437c5.262 1.835 12.53 2.867 19.926 2.783 7.396-.085 14.52-1.252 19.538-3.198a16.822 16.822 0 0 0 4.68-2.538c.955-.795 1.218-1.37 1.218-1.514 0-.288-1.05-2.107-5.983-3.9-5.077-1.836-12.201-2.843-19.605-2.767-7.404.076-14.639 1.252-19.86 3.223-4.915 1.82-6.125 3.68-6.142 4.01z" opacity=".5" fill="#080808"/>
            <path d="M120.763 264.903a19.158 19.158 0 0 0 4.9 2.437c5.262 1.835 12.53 2.867 19.926 2.783 7.396-.085 14.52-1.252 19.538-3.198a16.822 16.822 0 0 0 4.68-2.538 17.229 17.229 0 0 0-4.74-2.437c-5.076-1.835-12.2-2.842-19.596-2.758-7.396.085-14.647 1.244-19.86 3.215-1.73.59-3.363 1.43-4.848 2.496z" fill="#BA68C8"/>
            <path d="M120.763 264.903a19.158 19.158 0 0 0 4.9 2.437c5.262 1.835 12.53 2.867 19.926 2.783 7.396-.085 14.52-1.252 19.538-3.198a16.822 16.822 0 0 0 4.68-2.538 17.229 17.229 0 0 0-4.74-2.437c-5.076-1.835-12.2-2.842-19.596-2.758-7.396.085-14.647 1.244-19.86 3.215-1.73.59-3.363 1.43-4.848 2.496z" opacity=".2" fill="#FF9600"/>
            <path d="M132.668 265.038c-1.743-.956-3.85-1.336-4.704-.846-.855.491-.152 1.692 1.59 2.657 1.744.964 3.85 1.353 4.714.846.863-.508.144-1.692-1.6-2.657z" opacity=".5" fill="#000"/>
            <path d="M178.538 341.256c0 3.104-3.046 6.252-9.24 8.688-12.404 4.882-32.94 5.076-45.87.508-6.456-2.293-9.713-5.364-9.756-8.46l-2.327-30.313c0 3.3 3.487 6.557 10.349 9.002 13.733 4.881 35.538 4.644 48.696-.542 6.575-2.589 9.85-5.922 9.807-9.221l-1.659 30.338z" fill="#DDD"/>
            <path d="M178.538 341.256c0 3.104-3.046 6.252-9.24 8.688-12.404 4.882-32.94 5.076-45.87.508-6.456-2.293-9.713-5.364-9.756-8.46l-2.327-30.313c0 3.3 3.487 6.557 10.349 9.002 13.733 4.881 35.538 4.644 48.696-.542 6.575-2.589 9.85-5.922 9.807-9.221l-1.659 30.338z" opacity=".35" fill="#969696"/>
            <path d="M157.14 343.286c1.133-1.565 1.75-3.486 2.673-5.178a15.23 15.23 0 0 1 7.852-7.072.99.99 0 0 1 1.244.431c1.76 3.494.762 8.418-2.775 12.03-3.537 3.613-8.352 4.721-11.846 3.114-.203-.093-.263-.482-.102-.576a9.933 9.933 0 0 0 2.953-2.75zM165.753 330.097a16.746 16.746 0 0 0-4.967 3.13 15.059 15.059 0 0 0-3.562 4.991c-1.303 2.843-2.539 4.611-4.493 6.083a.965.965 0 0 1-1.363-.194c-2.377-3.503-1.506-8.917 2.294-12.809 3.604-3.68 8.656-4.788 12.201-2.944a.964.964 0 0 1-.11 1.743z" fill="#37474F"/>
        </g>
        <g>
            <path d="M208.01 361.052a3.013 3.013 0 0 1-1.455-.347l-1.295-.753a3.257 3.257 0 0 1-1.464-2.538v-39.11a3.257 3.257 0 0 1 1.464-2.539l32.915-18.976c.449-.235.95-.352 1.456-.338a3.004 3.004 0 0 1 1.455.338l1.303.753a3.274 3.274 0 0 1 1.456 2.538v39.17a3.265 3.265 0 0 1-1.456 2.538l-32.915 18.977c-.456.216-.96.315-1.464.287z" fill="#FAFAFA"/>
            <path d="M239.63 296.755c.457-.01.908.095 1.312.305l1.303.753a2.936 2.936 0 0 1 1.312 2.267v39.17a2.96 2.96 0 0 1-1.312 2.268l-32.923 18.976a2.962 2.962 0 0 1-2.615 0l-1.303-.753a2.96 2.96 0 0 1-1.312-2.276v-39.162c.057-.92.543-1.759 1.312-2.267l32.915-18.976c.405-.21.856-.315 1.312-.305m0-.583a3.174 3.174 0 0 0-1.6.389l-32.923 19.001a3.553 3.553 0 0 0-1.6 2.775v39.128a3.545 3.545 0 0 0 1.6 2.775l1.303.753a3.571 3.571 0 0 0 3.207 0l32.915-18.976a3.545 3.545 0 0 0 1.6-2.767v-39.17a3.553 3.553 0 0 0-1.6-2.775l-1.303-.744a3.199 3.199 0 0 0-1.6-.39z" fill="#BA68C8"/>
            <path d="M203.508 357.431a3.545 3.545 0 0 0 1.6 2.775l1.303.753a3.597 3.597 0 0 0 2.927.127c-.753.288-1.32-.144-1.32-1.049V320.9a3.29 3.29 0 0 1 .474-1.573l-4.501-2.606a3.257 3.257 0 0 0-.474 1.582l-.009 39.128z" fill="#95062D"/>
            <path d="M244.082 299.623c-.187-.677-.847-.896-1.549-.465L209.61 318.1c-.472.293-.86.704-1.125 1.193l-4.502-2.597a3.266 3.266 0 0 1 1.126-1.134l32.915-18.976a3.571 3.571 0 0 1 3.207 0l1.303.753a3.553 3.553 0 0 1 1.549 2.284z" fill="#F1F8FC"/>
            <path d="M244.082 299.623c-.187-.677-.847-.896-1.549-.465L209.61 318.1c-.472.293-.86.704-1.125 1.193l-4.502-2.597a3.266 3.266 0 0 1 1.126-1.134l32.915-18.976a3.571 3.571 0 0 1 3.207 0l1.303.753a3.553 3.553 0 0 1 1.549 2.284z" fill="#E74242" opacity=".4"/>
            <path d="M223.004 341.72a19.011 19.011 0 0 0-6.296-6.666l-2.352 6.024c3.8.836 6.895 3.58 8.182 7.25l2.615-1.514s1.109-15.068 11.669-31.1l-5.17-6.48s-8.36 16.548-8.648 32.487z" fill="#63D2C7"/>
        </g>
        <g>
            <path d="M302.432 347.034c.06 3.494.339 8.57 0 10.017-.338 1.446-6.16 2.86-10.712 3.07-4.552.212-10.018-.499-10.348 2.69-.33 3.19 2.538 5.365 4.611 6.337 3.545 1.642 7.505 1.286 11 .77s5.34-.135 9.012.762c3.672.897 5.753.347 7.319-.44 2.335-1.168 1.692-5.144.888-7.733-.804-2.588-.727-4.957-.423-8.553.305-3.595 1.329-8.84 1.329-8.84l-12.676 1.92z" fill="#FFBDA7"/>
            <path d="M314.185 362.507s0 1.1-2.377 1.6c-2.378.498-6.346.372-9.113.55-4.155.261-7.311.744-12.075 0-4.18-.652-4.002-3.969-.262-4.502-4.231.077-8.69-.22-8.986 2.657-.33 3.232 2.538 5.364 4.611 6.336 3.545 1.642 7.505 1.286 11 .77s5.34-.135 9.012.762c3.672.897 5.753.347 7.319-.44 2.301-1.168 1.7-5.144.871-7.733z" fill="#FAFAFA"/>
            <path d="M345.637 338.404c1.946 2.835 5.17 8.181 5.618 9.518.449 1.337.847 6.311 0 7.783-1.218.897-3.139 1.405-4.772 2.208-2.36 1.168-2.868 3.105-1.328 4.586 2.157 2.064 5.627 2.301 7.725 2.183 3.046-.466 3.258-3.884 3.698-6.912.44-3.03-.051-8.977 2.242-12.631 2.293-3.655 6.355-3.993 6.888-2.775-.254-1.845-1.261-1.895-3.461-3.139-2.2-1.244-4.12-1.21-5.34-4.095-1.438-3.384-2.75-7.495-2.75-7.495l-8.52 10.77z" fill="#FFBDA7"/>
            <path d="M349.927 364.707c2.191.372 3.731.372 7.615-1.54 3.385-1.65 4.231-2.343 4.73-3.257.804-1.438-.067-5.008.635-8.08a32.145 32.145 0 0 1 2.217-6.277c.761-1.87.702-2.673.584-3.215-.263-1.167-2.64-1.31-4.9 0-2.259 1.312-3.714 3.807-4.459 9.763-.744 5.956.398 12.47-6.422 12.606z" fill="#999"/>
            <path d="M365.708 342.338c-.254-1.844-.889-2.115-3.089-3.384-.846-.465-1.616-.795-2.369-1.176-2.124-.397-5.483 1.278-5.652 5.745-.17 4.467.592 10.152-.753 12.233-1.143 1.794-3.03 1.692-2.59-.101-3.02 1.108-4.061 1.125-5.762 2.055-1.963 1.075-2.631 3.884-.846 5.009a11.636 11.636 0 0 0 8.2 1.912c3.045-.466 3.257-3.883 3.697-6.912.44-3.029-.05-8.976 2.242-12.631 2.293-3.655 6.389-3.968 6.922-2.75z" fill="#FAFAFA"/>
            <path d="M346.212 340.156s-11.084-16.278-17.007-26.827c-4.375-7.792-4.773-9.306-5.847-14.383l-2.852-13.536-3.435 22.14c.55 2.403 1.692 7.166 1.692 9.958a107.341 107.341 0 0 1-1.328 16.32 171.342 171.342 0 0 1-3.385 18.087c-.846.6-3.385.71-5.534.643a25.473 25.473 0 0 1-6.22-1.159s-1.801-26.09-2.224-33.265c-.508-8.612-.686-11.996-.957-16.726-.431-7.53-1.455-18.434-1.159-32.266.584-27.53 6.71-40.093 6.71-40.093l31.08-4.315c2.58 9.307 7.936 10.347 8.503 23.012.127 2.868-1.396 8.57-1.447 13.028-.16 14.467-1.455 37.225-1.455 37.225 3.385 3.147 5.923 5.99 8.267 13.282 1.43 4.433 4.611 15.652 5.923 20.203-3.867-.068-9.367 6.92-9.325 8.672z" fill="#969696"/>
            <path d="M315.692 243.846h.846c0 5.076.355 10.812.939 11.353 1.015.93 5.077 2.175 6.075 2.073.999-.102 1.921-.736 3.918-2.758 1.413-1.421 1.43-2.437 1.472-4.645 0-.846-.338-5.423-.347-6.59h.787c.195 1.43.406 5.778.39 6.599 0 2.225-.068 3.57-1.693 5.237-2.157 2.182-3.198 2.893-4.425 3.003a2.869 2.869 0 0 1-.533 0c-1.693-.17-5.17-1.354-6.177-2.276-1.007-.922-1.252-9.45-1.252-11.996zM310.902 235.766l-.846-.194c-1.48 6.311-4.07 21.65-4.84 27.36l-.118.897c-1.6 12.41-1.735 23.967-1.32 36.996.465 14.585 1.387 39.61 1.827 51.378l.847.135c-.432-11.692-1.532-36.886-1.837-51.547-.592-30.338 2.293-44.695 6.287-65.025zM343.91 251.74a4.586 4.586 0 0 1-1.818 1.074c-1.312.059-3.487-1.811-4.104-3.215a9.457 9.457 0 0 1-.525-2.538 46.92 46.92 0 0 0-.888-5.55l.846-.051a45.06 45.06 0 0 1 .846 5.5 9 9 0 0 0 .457 2.309c.524 1.193 2.428 2.75 3.3 2.715a6.769 6.769 0 0 0 2.081-1.65 46.4 46.4 0 0 1-.194 1.405zM348.818 335.773c.195-.22.39-.44.601-.66-5.305-9.246-16.703-29.483-17.718-34.398-1.303-6.286-3.546-27.369-3.639-38.705h-.846c.085 11.387 2.344 32.563 3.647 38.916 1.083 5.11 12.675 25.634 17.955 34.847zM331.946 237.12c2.107 3.384 4.01 13.697 1.286 20.152l-.761-.338c2.589-6.142.643-16.641-1.346-19.814h.821z" fill="#DDD"/>
            <path d="m320.506 285.385 3.385-23.206s8.74-1.218 9.95-9.416c.212 4.864-1.692 9.044-7.158 11.286l-4.34 21.429 1.023 13.443-2.86-13.536z" fill="#DDD"/>
            <g>
                <path d="M333.097 185.539c4.992-1.117 8.2-1.142 11 2.825 2.8 3.968 1.354 11.193-1.464 14.129-2.818 2.935-9.536-16.954-9.536-16.954z" fill="#E74242"/>
                <path d="M333.097 185.539c4.992-1.117 8.2-1.142 11 2.825 2.8 3.968 1.354 11.193-1.464 14.129-2.818 2.935-9.536-16.954-9.536-16.954z" fill="#E74242" opacity=".35"/>
                <path d="M313.356 196.706s-21.094-4.23-22.296-5.076c-1.024-.745-1.354-1.954-1.87-3.037a14.28 14.28 0 0 0-2.327-3.384c-.6-.677-1.328-1.252-1.887-1.955-.558-.702-.736-1.463-1.235-2.123-.5-.66-1.185-.186-1.506.448a3.806 3.806 0 0 0 .076 2.877c.152.397.287.846.448 1.21.189.357.336.734.44 1.125a.939.939 0 0 1-.042.609c-.229.372-.94.118-1.26 0a17.076 17.076 0 0 1-5.679-3.765c-.693-.702-1.235-1.489-1.98-2.14a8.978 8.978 0 0 0-2.276-1.515 3.199 3.199 0 0 0-1.785-.321c-.914.347.11 1.793.338 2.284a3.29 3.29 0 0 1 .423 1.76c-.068.73.157 1.458.627 2.022.533.588.93 1.287 1.159 2.047v.846c.078.833.416 1.62.964 2.25.527.582.827 1.332.847 2.116.186 1.776 2.047 3.096 3.435 3.95a24.21 24.21 0 0 0 5.136 2.268c.956.313 1.896.702 2.86.99.965.287 1.752.423 2.598.744 2.005.77 17.532 6.684 23.692 8.401" fill="#FFBDA7"/>
                <path d="M274.306 180.488a1.278 1.278 0 0 0-.626-.178c.042-.736.102-1.506.16-2.31.162-2.283.34-4.872.458-7.613l-6.913-3.926a191.364 191.364 0 0 1-3.52 1.971c-4.307 2.37-7.7 4.23-8.775 6.574a4.77 4.77 0 0 0 .313 4.577c.565.852.86 1.854.846 2.876v.474a1.59 1.59 0 0 0-.27-.457 1.125 1.125 0 0 0-.254-.194c-1.21-.677-6.77-3.917-6.88-3.968-1.21-.677-3.799.846-7.615 3.172-1.083.652-2.268 1.37-3.554 2.115l-.084 2.014c-.364 8.325-.627 14.331.685 15.499a.922.922 0 0 0 .144.11l6.913 3.984c.235.116.51.116.744 0-.592 1.845-1.506 3.385-2.538 3.934a2.065 2.065 0 0 1-2.175 0c-.846-.516-2.217-.482-3.088 1.303-1.49 3.046-1.252 11.641-.905 19.535l6.879 3.967c1.244-.71 2.411-1.353 3.537-1.97 4.087-2.251 7.31-4.02 8.385-6.354a4.754 4.754 0 0 0-.321-4.577 5.152 5.152 0 0 1-.847-2.877v-.473c.063.171.158.33.28.465a.982.982 0 0 0 .211.17c1.168.693 6.77 3.925 6.88 3.967 1.167.694 3.799-.922 7.666-3.274 1.184-.728 2.538-1.54 3.943-2.369a292.499 292.499 0 0 0-.33-5.761c-.39-6.219-.669-10.71.55-13.207 1.057-2.157 2.606-2.233 3.613-1.692a1.82 1.82 0 0 0 1.929 0c1.557-.896 2.826-4.23 2.826-7.41 0-2.158-.584-3.706-1.438-4.23-.373-.145-5.974-3.36-6.829-3.867z" fill="#7F84BA"/>
                <path d="M250.394 200.319a6.557 6.557 0 0 0-2.175 2.538 5.677 5.677 0 0 1-2.166 2.394c-.592 1.844-1.506 3.384-2.538 3.934a2.065 2.065 0 0 1-2.175 0c-.846-.516-2.217-.483-3.088 1.303l6.879 3.967c.846-1.785 2.208-1.819 3.088-1.302a2.065 2.065 0 0 0 2.175 0c1.777-1.024 3.224-4.73 3.224-8.266 0-3.536-1.464-5.592-3.224-4.568z" fill="#263238"/>
                <path d="M254.82 191.199c0 2.732 1.86 3.883 4.154 2.538a9.365 9.365 0 0 0 4.154-7.37 5.075 5.075 0 0 0-.846-2.876 4.77 4.77 0 0 1-.389-4.39l-6.87-3.968a4.796 4.796 0 0 0 .38 4.39c.565.852.86 1.855.846 2.877v.448c.415 1.058 0 2.995-.584 4.484a10.717 10.717 0 0 0-.846 3.867z" fill="#37474F"/>
                <path d="M263.332 213.38c0-2.74-1.862-3.89-4.155-2.537a9.399 9.399 0 0 0-4.13 6.92c.073.157.167.302.28.432a.982.982 0 0 0 .211.169c1.126.668 6.364 3.672 6.846 3.942a.846.846 0 0 1-.178-.143c-.846-.846-.355-3.198.313-4.941.501-1.22.776-2.522.813-3.841z" fill="#263238"/>
                <path d="M256.215 182.925a1.244 1.244 0 0 0-.118-.237 1.1 1.1 0 0 1 .118.22v.017z" fill="#FAFAFA"/>
                <path d="M256.097 182.688c.048.074.087.154.118.237a1.1 1.1 0 0 0-.118-.22v-.017z" fill="#E0E0E0"/>
                <path d="m244.225 233.956.906-19.534-6.88-3.968c-1.489 3.045-1.252 11.64-.905 19.534l6.88 3.968zM238.252 201.122a.922.922 0 0 0 .143.11l6.913 3.985-.77-17.64-6.887-3.993-.085 2.014c-.364 8.35-.643 14.357.686 15.524z" fill="#37474F"/>
                <path d="M244.615 233.245c-.322-7.614-.517-15.76.897-18.612.431-.846 1.006-1.354 1.692-1.354.298-.005.591.074.846.229.39.238.837.367 1.295.372a2.598 2.598 0 0 0 1.311-.372c1.92-1.108 3.436-4.899 3.436-8.63 0-3.121-1.109-5.22-2.75-5.22a2.141 2.141 0 0 0-1.109.322 6.963 6.963 0 0 0-2.335 2.657c-.762 1.336-1.693 2.267-2.183 2.267a.372.372 0 0 1-.254-.102c-1.168-1.04-.846-7.614-.542-15.169l.068-1.785c1.05-.6 1.988-1.167 2.877-1.692l.5-.304c3.028-1.828 5.423-3.274 6.692-3.274a.846.846 0 0 1 .635.228c.55.567.38 2.42-.406 4.484a11.2 11.2 0 0 0-.847 3.976c0 2.15 1.084 3.537 2.776 3.537a4.054 4.054 0 0 0 2.014-.61 9.864 9.864 0 0 0 4.366-7.732 5.54 5.54 0 0 0-.889-3.113 4.34 4.34 0 0 1-.279-4.163c1.016-2.208 4.34-4.044 8.563-6.362.948-.516 1.904-1.049 2.886-1.607a262.84 262.84 0 0 1-.415 6.768c-.448 6.294-.745 10.457.542 11.607.258.245.6.381.956.38 1.43 0 2.792-2.097 3.308-3.003a5.652 5.652 0 0 1 1.777-2.098c.165-.103.355-.161.55-.169.795 0 1.642 1.388 1.642 3.96 0 3.003-1.202 6.226-2.615 7.047a1.523 1.523 0 0 1-.736.211 1.498 1.498 0 0 1-.77-.228 2.64 2.64 0 0 0-1.337-.372c-.669 0-1.93.287-2.869 2.2-1.269 2.596-.99 7.14-.592 13.417.11 1.751.229 3.553.313 5.499-1.362.795-2.631 1.574-3.731 2.242l-.068.05c-3.055 1.862-5.466 3.326-6.702 3.326a.72.72 0 0 1-.583-.204c-.55-.575-.39-2.42.406-4.492a11.36 11.36 0 0 0 .846-3.968c0-2.148-1.092-3.536-2.775-3.536a4.054 4.054 0 0 0-2.023.61 9.805 9.805 0 0 0-4.366 7.723 5.575 5.575 0 0 0 .846 3.114 4.297 4.297 0 0 1 .288 4.162c-1.007 2.2-4.163 3.934-8.157 6.134l-2.995 1.65z" fill="#FAFAFA"/>
                <path d="M273.375 171.926c-.11 2.09-.245 4.104-.38 6.016-.517 7.2-.694 10.718.685 11.962.338.308.778.48 1.235.482 1.591 0 2.987-2.013 3.673-3.214a5.135 5.135 0 0 1 1.624-1.938.71.71 0 0 1 .339-.118c.507 0 1.218 1.235 1.218 3.536 0 3.122-1.269 6.024-2.411 6.684-.155.096-.334.149-.516.152a1.117 1.117 0 0 1-.559-.17 3.097 3.097 0 0 0-1.548-.43c-.77 0-2.209.32-3.25 2.436-1.32 2.698-1.032 7.284-.634 13.637.101 1.625.211 3.384.304 5.229a164.75 164.75 0 0 0-3.511 2.123l-.076.042c-2.877 1.752-5.365 3.266-6.482 3.266-.203 0-.254-.05-.28-.076-.363-.372-.278-2.03.5-4.044a11.75 11.75 0 0 0 .846-4.12c0-2.369-1.286-3.96-3.198-3.96a4.451 4.451 0 0 0-2.226.66 10.152 10.152 0 0 0-4.586 8.097 5.972 5.972 0 0 0 .956 3.384c.724 1.12.82 2.532.254 3.74-.956 2.072-4.053 3.78-7.979 5.921h-.05l-2.345 1.303c-.245-5.787-.524-14.873.847-17.766.253-.508.677-1.117 1.303-1.117.211.004.418.063.6.17.454.278.975.427 1.507.43a3.047 3.047 0 0 0 1.523-.422c2.039-1.185 3.647-5.135 3.647-9.002 0-3.384-1.278-5.643-3.173-5.643-.465.008-.92.136-1.32.373a7.454 7.454 0 0 0-2.488 2.817c-.846 1.438-1.59 2.047-1.794 2.056-1.007-.897-.702-7.978-.398-14.83l.06-1.55c.947-.549 1.827-1.082 2.673-1.59l.508-.304c2.86-1.692 5.322-3.215 6.473-3.215.237 0 .296.068.322.093.364.38.279 2.03-.491 4.044a11.555 11.555 0 0 0-.846 4.129c0 2.368 1.286 3.959 3.198 3.959a4.561 4.561 0 0 0 2.226-.66 10.152 10.152 0 0 0 4.577-8.105 5.921 5.921 0 0 0-.964-3.384 3.933 3.933 0 0 1-.246-3.748c.956-2.08 4.231-3.883 8.462-6.184l2.191-1.218m.923-1.498a191.364 191.364 0 0 1-3.52 1.971c-4.307 2.37-7.7 4.23-8.775 6.574a4.77 4.77 0 0 0 .305 4.678c.565.852.86 1.855.846 2.877a9.365 9.365 0 0 1-4.155 7.369 3.69 3.69 0 0 1-1.802.55c-1.396 0-2.352-1.151-2.352-3.114.044-1.316.331-2.612.846-3.824.66-1.734 1.142-4.07.313-4.932a1.236 1.236 0 0 0-.94-.355c-1.387 0-3.722 1.412-6.904 3.333-1.083.651-2.268 1.37-3.554 2.115l-.084 2.013c-.364 8.325-.627 14.332.685 15.5a.779.779 0 0 0 .533.21c.846 0 1.836-1.226 2.538-2.478a6.557 6.557 0 0 1 2.175-2.538c.27-.165.58-.256.897-.262 1.337 0 2.327 1.886 2.327 4.797 0 3.536-1.447 7.242-3.224 8.265a2.251 2.251 0 0 1-1.1.313 2.065 2.065 0 0 1-1.075-.313 2.056 2.056 0 0 0-1.032-.287 2.344 2.344 0 0 0-2.056 1.59c-1.49 3.046-1.252 11.641-.905 19.534 1.243-.71 2.411-1.353 3.537-1.97 4.086-2.251 7.31-4.02 8.385-6.354a4.754 4.754 0 0 0-.322-4.577 5.152 5.152 0 0 1-.846-2.877 9.357 9.357 0 0 1 4.163-7.36 3.639 3.639 0 0 1 1.803-.55c1.387 0 2.352 1.142 2.352 3.113a10.912 10.912 0 0 1-.846 3.816c-.669 1.743-1.151 4.078-.313 4.94.225.222.53.341.846.33 1.37 0 3.748-1.455 6.998-3.434 1.184-.728 2.538-1.54 3.943-2.369a292.499 292.499 0 0 0-.33-5.761c-.39-6.219-.669-10.71.55-13.207.71-1.455 1.641-1.962 2.487-1.962.397.002.785.11 1.126.313.589.373 1.34.373 1.929 0 1.557-.897 2.826-4.23 2.826-7.411 0-2.648-.846-4.383-2.065-4.383-.27.007-.532.086-.761.229a5.922 5.922 0 0 0-1.93 2.25c-.845 1.404-1.97 2.792-2.944 2.792a.973.973 0 0 1-.668-.27c-1.134-1.016-.847-5.314-.407-11.27.161-2.284.339-4.873.457-7.614h.043z" fill="#E0E0E0"/>
                <path d="M310.936 159.05a4.788 4.788 0 0 1-.144-4.78c.711-1.489 2.073-3.02 5.864-4.644 4.502-1.938 16.788-3.232 21.5 4.991.703 1.227-12.141 22.96-11.888 27.58-2.817-3.384-12.074-15.389-12.074-15.389-2.31-1.184-3.69-2.149-4.028-4.425a5.532 5.532 0 0 1 .77-3.333z" fill="#263238"/>
                <path d="M312.282 165.437s-3.597 5.026-3.267 5.483c.703.647 1.462 1.23 2.268 1.742l.999-7.225z" fill="#F0997A"/>
                <path d="M316.952 156.148c-2.225.846-4.23 2.386-5.22 7.073-.263 1.227.583 2.986 0 4.602-2.378 6.912-.567 12.953.71 14.382.846.94 5.678 1.692 8.267 1.143 3.241-.66 10.374-3.283 14.021-8.02 4.29-5.567 5.754-13.36 1.692-16.828-5.762-4.898-17.084-3.282-19.47-2.352z" fill="#FFBDA7"/>
                <path d="m332.395 179.134.406 7.022c3.9 2.285-4.172 5.254-12.735 1.59l-.618-6.336 12.947-2.276z" fill="#FFBDA7"/>
                <path d="M319.736 184.304c.152 1.624.313 4.052-2.208 4.72-2.361.635-5.331 1.024-9.063 2.42 0 0 12.583 2.123 19.64.964 7.057-1.159 8.283-5.702 8.283-5.702-2.538-.347-3.604-.77-3.697-2.402h-12.955z" fill="#FFBDA7"/>
                <path d="M312.713 182.366c1.083.702 3.537 1.345 6.939 1.108l-.153-1.75a18.39 18.39 0 0 1-3.283.727 11.958 11.958 0 0 1-3.503-.085z" fill="#F0997A"/>
                <path d="M350.663 158.204a3.554 3.554 0 0 0-3.46-1.692c0-2.411-2.21-4.467-4.612-4.72a7.557 7.557 0 0 0-5.923 2.368c-1.591-.414-6.956-1.599-10.154-1.15-11.195 1.607-12.887 4.898-12.946 5.431-.339 3.054 1.523 4.162 2.851 4.865a6.547 6.547 0 0 0-.846 3.578c.195 1.574.694 2.894 2.192 3.52.913.38 1.218 0 1.607-.728.55-1.015 1.261-2.589 3.495-2.115 2.538.533 2.97 4.484 1.278 6.929a3.808 3.808 0 0 1-3.055 1.751 2.36 2.36 0 0 1-1.692-.956s-.076 3.384 4.154 5.744c0 0 4.231 2.792 8.86 1.777a86.299 86.299 0 0 0 6.261-6.675 17.52 17.52 0 0 0 1.904-2.978c1.861.7 3.941.5 5.635-.541a5.473 5.473 0 0 0 1.845-6.988 1.828 1.828 0 0 0 2.056-2.928c1.252-.778 1.303-3.223.55-4.492z" fill="#263238"/>
                <path d="M343.885 194.202c-1.176-5.702-4.23-6.946-5.643-7.191l-3.563-.618c.043.677.491 2.293-5.821 3.08-4.062.507-11.051-.533-11.051-.533a68.76 68.76 0 0 0-7.97 1.785c-4.096 1.167-6.254 5.922-8.928 12.25-2.107 4.983-1.32 10.06 2.446 13.765.306 3.099.232 6.224-.22 9.306-.474 3.764-1.261 5.6-.093 7.42 0 0 4.831 3.874 16.39 3.451 14.833-.55 19.613-4.882 19.613-4.882 1.287-.888-.465-4.856-.262-7.038.372-7.191 7.632-18.46 5.102-30.795z" fill="#95062D"/>
                <path d="M277.124 209.168s-21.095-4.23-22.296-5.076c-1.024-.745-1.363-1.955-1.87-3.037a14.28 14.28 0 0 0-2.327-3.384c-.601-.677-1.329-1.253-1.887-1.955-.559-.702-.736-1.463-1.236-2.123-.499-.66-1.184-.186-1.506.448a3.781 3.781 0 0 0 .068 2.868c.16.406.296.846.457 1.218.181.36.329.738.44 1.126a.998.998 0 0 1-.042.609c-.229.372-.948.118-1.261 0a16.991 16.991 0 0 1-5.678-3.765c-.694-.702-1.235-1.49-1.98-2.14a8.978 8.978 0 0 0-2.276-1.515 3.207 3.207 0 0 0-1.785-.321c-.914.338.101 1.793.338 2.284a3.29 3.29 0 0 1 .423 1.76c-.068.73.157 1.458.626 2.022.53.589.923 1.288 1.151 2.047.023.281.023.564 0 .846.085.832.425 1.618.973 2.25.53.579.831 1.33.846 2.115.186 1.777 2.056 3.097 3.444 3.951a24.21 24.21 0 0 0 5.136 2.268c.956.313 1.887.702 2.852.99.964.287 1.76.422 2.598.744 2.005.77 17.54 6.683 23.692 8.4 3.046.847 3.875 1.6 8.174-.642 7.742-4.036 15.324-6.768 19.783-9.526 6.092-3.74 8.69-5.838 9.519-9.814 1.93-9.222-2.225-11.48-2.225-11.48-5.297.126-7.565 1.286-13.987 5.558-6.913 4.61-20.164 13.274-20.164 13.274z" fill="#FFBDA7"/>
                <path d="M313.923 189.684c-2.59.245-7.675-2.166-11.846 1.802-4.172 3.968-24.708 17.14-24.708 17.14l-10.881-1.692s-2.285 1.422-3.588 5.356.432 5.507.432 5.507 9.62 3.714 13.343 4.56c3.723.846 3.69.99 8.174-1.142 4.485-2.132 24.141-11.599 24.141-11.599s8.385-4.45 4.933-19.932z" fill="#E74242"/>
                <path d="M313.923 189.684c-2.59.245-7.675-2.166-11.846 1.802-4.172 3.968-24.708 17.14-24.708 17.14l-10.881-1.692s-2.285 1.422-3.588 5.356.432 5.507.432 5.507 9.62 3.714 13.343 4.56c3.723.846 3.69.99 8.174-1.142 4.485-2.132 24.141-11.599 24.141-11.599s8.385-4.45 4.933-19.932z" fill="#E74242" opacity=".35"/>
            </g>
        </g>
        <g>
            <path fill="#000" opacity=".1" d="M85.279 171.834v63.14l52.2-30.206v-63.141z"/>
            <path d="m144.552 207.58-37.487 21.678c-3.989-1.939-13.572-6.055-16.099-10.958l-3.583-35.728 52.192-30.207 4.977 55.214z" fill="#FE9500"/>
            <path d="m144.552 207.58-37.487 21.678c-3.989-1.939-13.572-6.055-16.099-10.958l-3.583-35.728 52.192-30.207 4.977 55.214z" fill="#FE9500" opacity=".2"/>
            <path d="M134.91 169.352c-.71.957-1.597 2.397-2.907 2.541-.367.02-.731-.068-1.048-.254.093-.754-.127-1.804-1.082-1.694a.22.22 0 0 0-.152.136c-.135.61.076 1.244.55 1.651a11.52 11.52 0 0 1-1.606 3.658 4.518 4.518 0 0 1-1.36 1.465.97.97 0 0 1-1.066 0 .72.72 0 0 1-.27-.372c0-.178.068-.347.093-.517.025-.17-.38-.66-.575-.364v.068a1.077 1.077 0 0 0-.126.593c-.157.812-.377 1.61-.66 2.388-.278.754-.701 1.93-1.605 2.142-.904.212-1.302-.982-1.31-1.693 0-1.042.33-2.041 0-3.066-.068-.22-.482-.466-.609-.152-.969 2.625-1.946 5.244-2.932 7.858-.346.915-.845 2.871-2.172 2.499a1.853 1.853 0 0 1-1.217-1.398c.27-.567.533-1.143.778-1.693s.532-1.296.769-1.948a9.33 9.33 0 0 0 .667-2.151 1.005 1.005 0 0 0-1.842-.754 4.696 4.696 0 0 0-.794 1.779 9.953 9.953 0 0 0-.38 2.278c-.057.777 0 1.559.169 2.32a10.726 10.726 0 0 1-1.69 2.896c-.482.508-1.15.94-1.775.415-.313-.262-.592-.66-1.031-.728-.44-.068-.702.288-.845.677-.254.703-.465 1.423-.693 2.143-.49-.483-.38-1.694-1.276-1.694-.55 0-.752.517-.913.94l-.66 1.694c-.092-.754-.194-1.516-.286-2.278 0-.203-.39-.474-.516-.212l-1.69 3.387-.794 1.576a5.38 5.38 0 0 1-.77 1.388c.513-1.84.847-3.726.998-5.631.118-.92.118-1.85 0-2.77a1.447 1.447 0 0 0-1.09-1.244 3.376 3.376 0 0 0-2.215.77 6.412 6.412 0 0 0-1.63 1.61 6.709 6.709 0 0 0-1.268 4.284c0 .153.253.28.253.068a6.522 6.522 0 0 1 1.234-3.878 5.595 5.595 0 0 1 3.33-2.355c1.132-.144.963 1.228.93 1.965a36.516 36.516 0 0 1-.229 2.591 31.187 31.187 0 0 1-1.022 4.904c-.051.178.152.347.295.38.474.12.803-.202 1.04-.584.38-.635.684-1.338 1.014-1.998.566-1.101 1.124-2.202 1.69-3.311.11.847.211 1.693.313 2.49 0 .186.414.482.524.203l.845-2.117c.093-.229.498-1.694.845-1.16.346.533.397 1.388 1.183 1.693.093 0 .253 0 .287-.093.262-.796.482-1.618.786-2.388.085-.22.118-.5.473-.407.11 0 .254.22.338.297.194.209.42.386.668.525 1.09.525 2.155-.56 2.687-1.406.355-.567.676-1.152.98-1.753.113.222.252.43.415.618a1.9 1.9 0 0 0 2.83.178c.437-.587.76-1.25.956-1.956l1.014-2.718 1.546-4.133a6.925 6.925 0 0 0 0 2.286 2.03 2.03 0 0 0 1.69 1.652c.98.076 1.64-.788 2.029-1.584.399-.85.702-1.742.904-2.659.218.194.483.329.769.39 1.25.237 2.189-1.11 2.763-2.007a11.69 11.69 0 0 0 1.496-3.464c.341.183.72.288 1.107.305 1.597.05 2.662-1.482 3.313-2.744-.009-.203-.296-.593-.465-.373zm-20.282 13.55a8.797 8.797 0 0 1 .845-3.735c.117-.274.311-.51.558-.677.482-.254.456.33.38.644-.166.6-.364 1.19-.591 1.77a36.32 36.32 0 0 1-1.141 2.786c-.06-.263-.102-.534-.06-.771l.01-.017zM134.656 186.73a.624.624 0 0 1-.845 0c-.143-.144-.481-.254-.634-.051a10.42 10.42 0 0 0-1.14 2.701c-.313.847-1.099 2.05-2.138 1.694a2.21 2.21 0 0 1-1.141-1.694c.323-1.189.538-2.405.642-3.633a.44.44 0 0 0-.794-.228 6.236 6.236 0 0 0-.668 3.734 19.978 19.978 0 0 1-1.335 3.574c-.278.58-.586 1.145-.921 1.694a3.86 3.86 0 0 1-1.167 1.43c-.887.492-1.605-.118-2.053-.846.279-.635.566-1.262.845-1.897a28.752 28.752 0 0 0 1.944-4.835c.228-.957.634-3.498-.98-3.49-1.285 0-2.088 1.762-2.536 2.744a10.13 10.13 0 0 0-.845 4.438 7.728 7.728 0 0 0 .676 3.074c-.236.576-.566 1.499-1.31 1.346-.743-.152-.997-1.261-1.124-1.939-.05-.254-.557-.559-.693-.22-.616 1.457-1.208 2.93-1.85 4.378-.195.424-.431.745-.904.44a3.552 3.552 0 0 1-.727-.652 6.175 6.175 0 0 1-1.276-2.024c-.102-.245-.583-.431-.676-.076a24.277 24.277 0 0 1-3.296 7.063 5.557 5.557 0 0 1-.735-4.014c.135-.407.262-.847.371-1.211.11-.364-.456-.635-.616-.288-.181.416-.317.85-.406 1.296a22.607 22.607 0 0 1-2.476 5.25 5.227 5.227 0 0 1-2.282 2.126 2.531 2.531 0 0 1-2.772-.483c-.22-.246-.397.076-.22.288a2.81 2.81 0 0 0 2.595.847 4.453 4.453 0 0 0 2.746-1.812 17.683 17.683 0 0 0 2.358-4.142 6.053 6.053 0 0 0 1.234 2.778c.135.17.44.313.6.093a24.58 24.58 0 0 0 3.38-6.825c.264.475.579.921.938 1.33.482.524 1.243 1.337 2.045 1.168.803-.17 1.074-1.431 1.344-2.075l.963-2.261c.355.932 1.006 1.745 2.122 1.533.642-.127.971-.686 1.233-1.237.058.072.12.14.186.204a2.27 2.27 0 0 0 3.38-.094 16.102 16.102 0 0 0 2.485-4.716c.085-.212.144-.432.22-.653.253.468.646.844 1.124 1.076.987.401 2.12.046 2.704-.847.727-1 .845-2.286 1.437-3.328a1.493 1.493 0 0 0 1.614-.203c.346-.314-.313-.77-.626-.525zm-11.788.39c.236-.487.546-.933.92-1.322.271-.245.635-.5.846 0 .096.382.116.78.059 1.169a11.323 11.323 0 0 1-1.116 3.718 313.734 313.734 0 0 1-1.512 3.387v-.11a9.486 9.486 0 0 1 .803-6.826v-.017zM131.868 202.744c-.947.77-2.265.999-3.178 1.812a8.274 8.274 0 0 0-1.124 1.583 1.691 1.691 0 0 1-.777.67c-.431.152-.626-.11-.896-.399-.938-1.007-2.104-.448-2.67.636-.567 1.084-1.133 3.556-2.89 3.023a3.324 3.324 0 0 0-1.919-.381c-.6.254-1.066.748-1.284 1.363-.178.364.498.728.684.373.147-.419.418-.783.778-1.042.447-.237.912 0 1.343.203.712.33 1.546.256 2.189-.194a4.234 4.234 0 0 0 1.386-1.957c.236-.559.938-2.54 1.783-1.642a1.688 1.688 0 0 0 1.834.702 3.037 3.037 0 0 0 1.572-1.54 3.805 3.805 0 0 1 1.876-1.576c.38-.153.746-.343 1.09-.567.233-.188.404-.442.49-.729.06-.127-.135-.465-.287-.338zM136.55 200.745a.263.263 0 0 0-.085-.127l-.06-.06a.371.371 0 0 0-.135-.05.169.169 0 0 0-.093 0 .16.16 0 0 0-.084 0 .263.263 0 0 0-.05.11.246.246 0 0 0 0 .136.313.313 0 0 0 .084.143.364.364 0 0 0 .101.094l.093.042c.03.009.063.009.093 0a.203.203 0 0 0 .06-.11v-.076a.254.254 0 0 0 .075-.102z" fill="#FAFAFA"/>
            <path d="M90.966 218.3c1.276 2.786 10.986 3.7 15.473 1.694 0 0-1.47 6.681.626 9.273 0 0-3.862.127-9.803-3.752-5.94-3.878-6.296-7.215-6.296-7.215zM139.575 152.373l-52.2 30.19v-9.688l52.2-30.198z" fill="#CB7700"/>
        </g>
    </g>
</svg>
