<svg width="218" height="259" viewBox="0 0 218 259" xmlns="http://www.w3.org/2000/svg">
    <g fill-rule="nonzero" fill="none" opacity=".26">
        <path fill="#595858" d="M23 0v113.215l40.333-19.188v-9.19L120 118V63.323z"/>
        <path fill="#595858" d="M23 134.897V259l48-27.494V110z"/>
        <path fill="#302D2E" d="M0 123.34 22.88 135 71 109.823 50.94 99zM150 50l-30 13.409V118l26.138-13.409zM82 151v75l45-20.568V175.6z"/>
        <path fill="#595858" d="M82 150.039 127.015 175 218 125.012 168.192 102z"/>
        <path fill="#110F10" d="M138 170.328V201l27.037-16.284L166 155z"/>
        <path fill="#595858" d="M125 126.754 113.598 122 86 136.246 99.316 141z"/>
    </g>
</svg>
