<svg width="179" height="52" viewBox="0 0 179 52" xmlns="http://www.w3.org/2000/svg" xmlns:xlink="http://www.w3.org/1999/xlink">
    <defs>
        <path id="a" d="M0 51.04h178.608V0H0z"/>
    </defs>
    <g fill="none" fill-rule="evenodd">
        <path fill="#F4374C" d="M45.489 35.927V16.073h13.267v3.359h-9.36v4.7h8.08v3.358h-8.08v8.437zM60.651 35.927l6.62-10.36-5.999-9.494h4.571l3.884 6.379 3.805-6.38h4.531l-6.024 9.643 6.618 10.212h-4.716l-4.293-6.866-4.307 6.866z"/>
        <path fill="#FFF" d="M80.553 35.927V16.073h14.782v3.359H84.578v4.401h10.008v3.346H84.578v5.403h11.137v3.345z"/>
        <g>
            <path d="M110.863 30.843c.498-.58.871-1.28 1.12-2.102.25-.823.374-1.765.374-2.83 0-2.198-.49-3.84-1.468-4.925-.978-1.086-2.258-1.63-3.84-1.63-1.581 0-2.864.546-3.846 1.636-.983 1.09-1.474 2.73-1.474 4.92 0 2.223.49 3.886 1.474 4.99.982 1.103 2.225 1.655 3.729 1.655.559 0 1.087-.091 1.585-.273a11.262 11.262 0 0 0-2.398-1.194l1.088-2.194a13.239 13.239 0 0 1 3.656 1.947m3.12 2.168a12.713 12.713 0 0 0 3.106 1.61l-1.43 2.712a8.919 8.919 0 0 1-1.716-.714c-.123-.06-.983-.623-2.582-1.687-1.258.545-2.652.818-4.18.818-2.954 0-5.267-.862-6.94-2.583-1.674-1.722-2.51-4.141-2.51-7.256 0-3.107.84-5.523 2.517-7.249s3.953-2.59 6.828-2.59c2.848 0 5.107.864 6.775 2.59 1.67 1.726 2.504 4.142 2.504 7.25 0 1.643-.232 3.088-.695 4.334-.35.952-.909 1.874-1.678 2.765M119.369 16.397h3.88v10.306c0 1.635.047 2.695.143 3.18a3.076 3.076 0 0 0 1.187 1.875c.624.472 1.478.708 2.562.708 1.1 0 1.93-.223 2.49-.669.559-.446.895-.992 1.009-1.642.114-.648.17-1.726.17-3.231V16.397h3.88v9.994c0 2.285-.105 3.899-.315 4.841-.21.944-.596 1.74-1.16 2.389-.564.649-1.317 1.166-2.26 1.551-.944.384-2.176.577-3.696.577-1.835 0-3.227-.21-4.175-.63-.948-.419-1.697-.964-2.247-1.634-.55-.671-.913-1.374-1.088-2.11-.254-1.09-.38-2.7-.38-4.828v-10.15z" fill="#FFF"/>
            <mask id="b" fill="#fff">
                <use xlink:href="#a"/>
            </mask>
            <path fill="#FFF" mask="url(#b)" d="M138.66 35.425h3.88V16.397h-3.88zM150.56 35.425V19.616h-5.7v-3.219h15.268v3.219h-5.688v15.809zM167.677 35.425v-8.008l-7.038-11.02h4.548l4.522 7.528 4.43-7.528h4.469l-7.064 11.046v7.982z"/>
            <path fill="#E74242" mask="url(#b)" d="M4.581.08v22.305l8.017-3.78v-1.81L23.86 23.33V12.556z"/>
            <path fill="#E74242" mask="url(#b)" d="M4.581 26.73v24.388l9.64-5.404V21.837z"/>
            <path fill="#95062D" mask="url(#b)" d="m0 24.465 4.581 2.266 9.64-4.894-4.019-2.102zM29.777 9.909l-5.917 2.646v10.776l5.154-2.647zM16.225 29.758v14.82l8.97-4.066v-5.893z"/>
            <path fill="#E74242" mask="url(#b)" d="m16.225 29.758 8.97 4.915 18.134-9.838-9.925-4.53z"/>
            <path fill="#95062D" mask="url(#b)" d="M27.486 33.538v6.05l5.345-3.214.19-5.86z"/>
            <path fill="#E74242" mask="url(#b)" d="m24.814 25.032-2.29-.945-5.536 2.835 2.673.945z"/>
        </g>
    </g>
</svg>
