<svg width="19" height="19" viewBox="0 0 19 19" xmlns="http://www.w3.org/2000/svg">
    <path d="M17.95 5.324a6.53 6.53 0 0 0-.419-2.216A4.61 4.61 0 0 0 14.898.475a6.606 6.606 0 0 0-2.186-.42C11.75.012 11.445 0 9.003 0s-2.755 0-3.71.055a6.606 6.606 0 0 0-2.185.42A4.607 4.607 0 0 0 .475 3.108a6.554 6.554 0 0 0-.419 2.185C.013 6.256 0 6.561 0 9.003s0 2.754.056 3.71c.015.748.156 1.486.419 2.187a4.61 4.61 0 0 0 2.634 2.632 6.584 6.584 0 0 0 2.185.45c.963.043 1.268.056 3.71.056s2.755 0 3.71-.056a6.59 6.59 0 0 0 2.186-.419 4.615 4.615 0 0 0 2.633-2.633c.263-.7.404-1.438.419-2.187.043-.962.056-1.267.056-3.71-.002-2.442-.002-2.752-.058-3.709zm-8.953 8.297a4.622 4.622 0 0 1-4.623-4.623 4.623 4.623 0 1 1 4.623 4.623zm4.807-8.339a1.077 1.077 0 1 1-.002-2.154 1.077 1.077 0 0 1 .002 2.154z" fill="#969696" fill-rule="nonzero"/>
</svg>
