<svg width="17" height="17" viewBox="0 0 17 17" xmlns="http://www.w3.org/2000/svg">
    <path d="M16.95 10.762v6.103h-3.536V11.17c0-1.428-.51-2.408-1.79-2.408-.975 0-1.559.657-1.814 1.292-.09.227-.119.544-.119.861v5.945H6.155s.046-9.64 0-10.642h3.536v1.507c-.005.011-.017.023-.022.034h.022v-.034c.47-.725 1.31-1.757 3.19-1.757 2.324.006 4.07 1.525 4.07 4.794zM.66 16.865h3.536V6.223H.659v10.642zM4.297 2.614a1.821 1.821 0 0 1-1.82 1.819A1.821 1.821 0 0 1 .66 2.613c0-1.002.816-1.818 1.819-1.818 1.003 0 1.819.816 1.819 1.819z" fill="#969696" fill-rule="nonzero"/>
</svg>
