<svg width="30" height="30" viewBox="0 0 30 30" xmlns="http://www.w3.org/2000/svg">
    <g fill="none" fill-rule="evenodd">
        <circle fill="#363636" cx="15" cy="15" r="15"/>
        <g fill="#FFF">
            <path d="M15.198 6.423a2.684 2.684 0 0 1 2.68 2.68 2.684 2.684 0 0 1-2.68 2.68 2.684 2.684 0 0 1-2.68-2.68 2.684 2.684 0 0 1 2.68-2.68m0 6.524a3.85 3.85 0 0 0 3.845-3.844 3.85 3.85 0 0 0-3.845-3.844 3.849 3.849 0 0 0-3.845 3.844 3.849 3.849 0 0 0 3.845 3.844M8.403 21.766c.107-5.254 2.64-6.323 6.673-6.323h.245c4.138 0 6.572 1.046 6.674 6.326a15.098 15.098 0 0 1-13.592-.003m6.918-7.487h-.245c-3.877 0-7.841.932-7.841 7.841v.355l.555.284a16.232 16.232 0 0 0 7.411 1.789c2.632 0 5.264-.639 7.653-1.915l.307-.164v-.349c0-6.89-3.768-7.84-7.84-7.84"/>
        </g>
    </g>
</svg>
